<svg width="71" height="70" viewBox="0 0 71 70" fill="none" xmlns="http://www.w3.org/2000/svg">
<path fill-rule="evenodd" clip-rule="evenodd" d="M49.9512 18.8051C59.1985 20.9338 59.2775 27.9562 49.9512 28.3746V18.8051Z" fill="#FF009E"/>
<path fill-rule="evenodd" clip-rule="evenodd" d="M22.2891 37.3329C18.8816 37.9805 17.2397 40.932 17.4048 43.1134C17.4048 43.1134 15.8669 43.1402 15.702 43.1134C15.5176 40.998 16.081 38.0554 19.5557 36.3919C17.8441 35.4931 16.2495 35.4909 14.8954 37.3329L13.6855 36.2126C14.9519 34.7754 16.331 33.451 20.4071 34.8235C19.3468 31.927 17.483 31.5414 15.478 31.5972L15.5228 29.8495C20.8792 29.909 21.6741 32.77 22.2151 35.8831L22.2891 37.3329Z" fill="#8C00F1"/>
<path fill-rule="evenodd" clip-rule="evenodd" d="M43.5141 19.9001C49.6954 11.2862 52.9667 7.2107 50.7329 5.3355C48.3905 3.36914 44.6248 7.27418 35.998 14.1225L39.7561 17.0113L43.5141 19.9001Z" fill="#008298"/>
<path fill-rule="evenodd" clip-rule="evenodd" d="M49.9512 18.8051C59.1985 20.9338 59.2775 27.9562 49.9512 28.3746V18.8051Z" fill="#98005E"/>
<path fill-rule="evenodd" clip-rule="evenodd" d="M29.3834 59.513C29.1819 62.6023 29.9347 66.1687 25.384 67.0834C22.0132 66.9841 20.2346 64.6559 20.6704 59.2274L29.3834 59.513Z" fill="#580098"/>
<path fill-rule="evenodd" clip-rule="evenodd" d="M28.5264 48.9431L31.6689 55.7992L29.3835 55.9421L31.6689 60.6557L18.3851 60.5128L20.6704 55.9421H18.2422L22.5273 47.9432L28.5264 48.9431Z" fill="#98005E"/>
<path fill-rule="evenodd" clip-rule="evenodd" d="M48.3815 59.3701C48.1799 62.4594 48.9327 66.0258 44.382 66.9405C41.0112 66.8413 39.2326 64.513 39.6685 59.0845L48.3815 59.3701Z" fill="#580098"/>
<path fill-rule="evenodd" clip-rule="evenodd" d="M50.3807 60.5129H37.5254L39.8108 56.0849L37.5254 55.9421L41.2391 47.8004L47.6668 48.5146L50.2378 55.7993H48.381L50.3807 60.5129Z" fill="#98005E"/>
<path fill-rule="evenodd" clip-rule="evenodd" d="M47.5234 35.8021L50.0944 42.0869H48.0947L50.5229 46.9434L48.2376 46.8005L50.6658 51.3713L18.6704 51.2285L20.9558 46.8005L18.3848 46.6577C22.5594 39.497 23.9612 37.4544 30.8115 37.659L47.5234 35.8021Z" fill="#988400"/>
<path fill-rule="evenodd" clip-rule="evenodd" d="M50.2388 37.659H30.6702L32.9555 33.0882H30.5273L33.8126 26.6606H48.2391L50.5244 33.0882H48.0962L50.2388 37.659Z" fill="#008298"/>
<path fill-rule="evenodd" clip-rule="evenodd" d="M46.4805 59.3701C46.3226 62.4594 46.9123 66.0258 43.3473 66.9405C40.7065 66.8413 39.3131 64.513 39.6545 59.0845L46.4805 59.3701Z" fill="#8C00F1"/>
<path fill-rule="evenodd" clip-rule="evenodd" d="M47.4098 60.5129H37.5254L39.2826 56.0849L37.5254 55.9421L40.3809 47.8004L45.3231 48.5146L47.3 55.7993H45.8722L47.4098 60.5129Z" fill="#FF009E"/>
<path fill-rule="evenodd" clip-rule="evenodd" d="M27.4824 59.513C27.3245 62.6023 27.9143 66.1687 24.3492 67.0834C21.7085 66.9841 20.3151 64.6559 20.6565 59.2274L27.4824 59.513Z" fill="#8C00F1"/>
<path fill-rule="evenodd" clip-rule="evenodd" d="M28.3954 60.6025H18.2422L20.0472 56.1433L18.2422 55.9995L21.1753 47.8004L26.252 48.5196L28.2826 55.8556H26.8161L28.3954 60.6025Z" fill="#FF009E"/>
<path fill-rule="evenodd" clip-rule="evenodd" d="M44.7077 35.8021L47.0303 42.0869H45.2238L47.4174 46.9434L45.3529 46.8005L47.5464 51.3713L18.6428 51.2285L20.7073 46.8005L18.3848 46.6577C22.156 39.497 24.4434 37.4464 30.6318 37.6511L44.7077 35.8021Z" fill="#FFE001"/>
<path fill-rule="evenodd" clip-rule="evenodd" d="M46.7433 37.659H30.6448L32.525 33.0882H30.5273L33.23 26.6606H45.0982L46.9783 33.0882H44.9807L46.7433 37.659Z" fill="#00BEDD"/>
<path d="M43.879 24.1291C42.7076 24.1291 41.758 23.1794 41.758 22.008C41.758 20.8366 42.7076 19.887 43.879 19.887C45.0504 19.887 46 20.8366 46 22.008C46 23.1794 45.0504 24.1291 43.879 24.1291Z" fill="white"/>
<path d="M43.8789 23.0685C43.2932 23.0685 42.8184 22.5937 42.8184 22.008C42.8184 21.4223 43.2932 20.9475 43.8789 20.9475C44.4646 20.9475 44.9395 21.4223 44.9395 22.008C44.9395 22.5937 44.4646 23.0685 43.8789 23.0685Z" fill="black"/>
<path d="M46.7154 26.618L54.246 29.8239C54.6052 29.9768 54.8263 30.2656 54.7398 30.4688C54.6533 30.672 54.2919 30.7128 53.9327 30.5599L46.4021 27.3539C46.0428 27.201 45.8217 26.9122 45.9082 26.709C45.9947 26.5058 46.3561 26.465 46.7154 26.618Z" fill="black"/>
<path fill-rule="evenodd" clip-rule="evenodd" d="M22.2442 36.5191L19.6731 41.7285H21.6728L19.2446 46.5849L21.53 46.4421L19.1017 51.0128L51.0971 50.87L48.8118 46.4421L51.3828 46.2992C47.2082 39.1385 45.8064 38.1713 38.956 38.376L30.6476 37.6535L22.2442 36.5191Z" fill="#FFE000"/>
<path d="M42.904 44.9851L44.427 43.4621L45.7262 44.7545L47.0254 46.047L47.4463 45.6076L47.8672 45.1683L46.1485 43.455L44.4299 41.7416L42.9789 43.1866C42.1808 43.9813 41.4601 44.6316 41.3772 44.6316C41.2944 44.6316 40.5737 43.9814 39.7758 43.1868L38.325 41.7421L36.838 43.2228L35.3511 44.7036L33.9003 43.2589C33.1024 42.4643 32.3817 41.8141 32.2989 41.8141C32.216 41.8141 31.4954 42.4643 30.6974 43.2589L29.2466 44.7036L27.7597 43.2228L26.2727 41.7421L24.8219 43.1868C24.024 43.9814 23.3033 44.6316 23.2205 44.6316C23.1377 44.6316 22.4169 43.9813 21.6189 43.1866L20.1679 41.7416L18.4492 43.455L16.7305 45.1683L17.1515 45.6076L17.5724 46.047L18.8706 44.7555L20.1688 43.464L21.6966 44.986L23.2243 46.508L24.7475 44.9849L26.2706 43.4617L27.748 44.9329L29.2253 46.4041L30.7512 44.9601L32.277 43.516L33.773 45.012L35.269 46.508L36.797 44.9858L38.325 43.4635L39.853 44.9858L41.381 46.508L42.904 44.9851Z" fill="black"/>
<path fill-rule="evenodd" clip-rule="evenodd" d="M49.0542 16.2509C59.7306 18.7085 59.8217 26.8161 49.0542 27.2991V16.2509Z" fill="#FF009E"/>
<path fill-rule="evenodd" clip-rule="evenodd" d="M42.8914 19.2398C44.6289 8.78096 45.7621 3.67927 42.9295 2.98448C39.9592 2.25589 38.3073 7.42316 33.5957 17.3791L38.2435 18.3094L42.8914 19.2398Z" fill="#00BEDD"/>
<path fill-rule="evenodd" clip-rule="evenodd" d="M47.5234 35.8021L50.0944 42.0869H48.0947L50.5229 46.9434L48.2376 46.8005L50.6658 51.3713L18.6704 51.2285L20.9558 46.8005L18.3848 46.6577C22.5594 39.497 23.9612 37.4544 30.8115 37.659L47.5234 35.8021Z" fill="#988400"/>
<path fill-rule="evenodd" clip-rule="evenodd" d="M50.2388 37.659H30.6702L32.9555 33.0882H30.5273L33.8126 26.6606H48.2391L50.5244 33.0882H48.0962L50.2388 37.659Z" fill="#008298"/>
<path fill-rule="evenodd" clip-rule="evenodd" d="M44.7077 35.8021L47.0303 42.0869H45.2238L47.4174 46.9434L45.3529 46.8005L47.5464 51.3713L18.6428 51.2285L20.7073 46.8005L18.3848 46.6577C22.156 39.497 24.4434 37.4464 30.6318 37.6511L44.7077 35.8021Z" fill="#FFE001"/>
<path fill-rule="evenodd" clip-rule="evenodd" d="M46.7433 37.659H30.6448L32.525 33.0882H30.5273L33.23 26.6606H45.0982L46.9783 33.0882H44.9807L46.7433 37.659Z" fill="#00BEDD"/>
<path fill-rule="evenodd" clip-rule="evenodd" d="M49.9517 18.8046L34.5253 15.3765L30.6736 23.0425L32.807 23.0843L30.2402 28.3747H49.9517V23.5896V21.1971V18.8046Z" fill="#FFE000"/>
<path d="M43.879 24.1291C42.7076 24.1291 41.758 23.1794 41.758 22.008C41.758 20.8366 42.7076 19.887 43.879 19.887C45.0504 19.887 46 20.8366 46 22.008C46 23.1794 45.0504 24.1291 43.879 24.1291Z" fill="white"/>
<path d="M43.8789 23.0685C43.2932 23.0685 42.8184 22.5937 42.8184 22.008C42.8184 21.4223 43.2932 20.9475 43.8789 20.9475C44.4646 20.9475 44.9395 21.4223 44.9395 22.008C44.9395 22.5937 44.4646 23.0685 43.8789 23.0685Z" fill="black"/>
<path d="M46.7154 26.618L54.246 29.8239C54.6052 29.9768 54.8263 30.2656 54.7398 30.4688C54.6533 30.672 54.2919 30.7128 53.9327 30.5599L46.4021 27.3539C46.0428 27.201 45.8217 26.9122 45.9082 26.709C45.9947 26.5058 46.3561 26.465 46.7154 26.618Z" fill="black"/>
<path fill-rule="evenodd" clip-rule="evenodd" d="M22.2442 36.5191L19.6731 41.7285H21.6728L19.2446 46.5849L21.53 46.4421L19.1017 51.0128L51.0971 50.87L48.8118 46.4421L51.3828 46.2992C47.2082 39.1385 45.8064 38.1713 38.956 38.376L30.6476 37.6535L22.2442 36.5191Z" fill="#FFE000"/>
<path d="M42.904 44.9851L44.427 43.4621L45.7262 44.7545L47.0254 46.047L47.4463 45.6076L47.8672 45.1683L46.1485 43.455L44.4299 41.7416L42.9789 43.1866C42.1808 43.9813 41.4601 44.6316 41.3772 44.6316C41.2944 44.6316 40.5737 43.9814 39.7758 43.1868L38.325 41.7421L36.838 43.2228L35.3511 44.7036L33.9003 43.2589C33.1024 42.4643 32.3817 41.8141 32.2989 41.8141C32.216 41.8141 31.4954 42.4643 30.6974 43.2589L29.2466 44.7036L27.7597 43.2228L26.2727 41.7421L24.8219 43.1868C24.024 43.9814 23.3033 44.6316 23.2205 44.6316C23.1377 44.6316 22.4169 43.9813 21.6189 43.1866L20.1679 41.7416L18.4492 43.455L16.7305 45.1683L17.1515 45.6076L17.5724 46.047L18.8706 44.7555L20.1688 43.464L21.6966 44.986L23.2243 46.508L24.7475 44.9849L26.2706 43.4617L27.748 44.9329L29.2253 46.4041L30.7512 44.9601L32.277 43.516L33.773 45.012L35.269 46.508L36.797 44.9858L38.325 43.4635L39.853 44.9858L41.381 46.508L42.904 44.9851Z" fill="black"/>
</svg>
