<svg width="18" height="20" viewBox="0 0 18 20" fill="none" xmlns="http://www.w3.org/2000/svg">
<path d="M8.2069 0C8.58008 0.0908166 8.9183 0.242704 9.17822 0.539685C9.21823 0.570361 9.26847 0.584556 9.31862 0.579352C10.0201 0.561606 10.5493 0.882598 10.9303 1.44263C11.1182 1.71926 11.2435 2.0392 11.3949 2.34036C11.4204 2.39255 11.4366 2.44475 11.4622 2.5126L12.1882 2.29808V20L0 17.8924C0.0307941 17.6377 0.0584561 17.3883 0.0908161 17.1393C0.348652 15.1462 0.607189 13.1529 0.866416 11.1595C1.08824 9.44963 1.31475 7.74081 1.52875 6.03043C1.56946 5.70266 1.72552 5.52155 2.04077 5.43073C2.67753 5.24753 3.30698 5.03981 3.94165 4.84878C4.05073 4.8159 4.09093 4.76422 4.11389 4.65148C4.39313 3.2861 4.95733 2.05798 5.90882 1.02716C6.37856 0.519321 6.93233 0.144052 7.6312 0.0245294C7.64164 0.0245294 7.64999 0.00887288 7.65991 0H8.2069ZM3.69164 13.7671C3.56585 14.3031 3.44842 14.8297 3.31637 15.3527C3.28401 15.4816 3.31323 15.5531 3.41188 15.633C4.3023 16.3538 5.3232 16.6429 6.45371 16.5291C7.52055 16.4216 8.29249 15.871 8.70951 14.8798C8.84474 14.5424 8.93104 14.1874 8.96579 13.8255C9.07279 12.8339 8.79824 11.9648 8.03047 11.2973C7.73245 11.0363 7.39529 10.8234 7.07535 10.5895C6.81438 10.398 6.52888 10.2304 6.29244 10.0123C5.88012 9.6323 5.95631 9.00233 6.4438 8.72414C6.63797 8.62054 6.84896 8.55214 7.06699 8.52215C7.64111 8.43237 8.19175 8.55398 8.73718 8.75284C8.75701 8.69177 8.77737 8.63801 8.7925 8.58216C8.96526 7.93601 9.12915 7.28673 9.31444 6.6437C9.36663 6.46364 9.31445 6.40623 9.1516 6.36134C8.5425 6.19746 7.92871 6.20215 7.31178 6.29035C5.342 6.57115 4.13477 7.88747 3.96827 9.56549C3.86388 10.5979 4.15407 11.4695 5.00952 12.1089C5.25953 12.2957 5.51528 12.4742 5.76267 12.6658C6.01007 12.8573 6.24808 13.0833 6.35351 13.3965C6.55549 14.0061 6.18961 14.5348 5.55233 14.4925C5.21673 14.4696 4.87799 14.3615 4.56066 14.2378C4.26159 14.1215 3.99071 13.9336 3.69164 13.7671ZM4.76474 4.54083C4.82163 4.5591 4.83468 4.56849 4.8446 4.56536C5.35401 4.40878 5.86394 4.25534 6.37073 4.09093C6.42293 4.07423 6.47042 3.99854 6.48869 3.9406C6.54976 3.74853 6.58629 3.54864 6.64996 3.35813C6.9412 2.48911 7.34623 1.68794 8.06807 1.08928C8.19437 0.984896 8.3353 0.895644 8.48561 0.788126C8.10565 0.588225 7.73925 0.622673 7.37546 0.762029C6.95791 0.921741 6.62544 1.20149 6.33159 1.5277C5.83206 2.08725 5.43553 2.7308 5.16036 3.42858C5.009 3.79237 4.89209 4.16869 4.76317 4.54083H4.76474ZM7.16564 3.8477C7.8525 3.63475 8.48613 3.44164 9.1161 3.23756C9.14636 3.22132 9.17215 3.19787 9.19118 3.16929C9.21021 3.1407 9.22189 3.10786 9.22519 3.07368C9.22443 2.78749 9.20421 2.50167 9.16465 2.21822C9.11246 1.91602 9.02059 1.6206 8.93708 1.28761C7.90574 1.86904 7.50594 2.8054 7.16564 3.8477ZM10.8192 2.7151C10.6569 1.9844 10.0832 1.26673 9.65161 1.27769L9.92667 2.99278L10.8192 2.7151Z" fill="#1F235A"/>
<path d="M12.6236 2.52039C12.9952 2.88052 13.3355 3.21977 13.6883 3.54546C13.7682 3.6145 13.8684 3.65571 13.9738 3.66289C14.3773 3.68221 14.7812 3.68483 15.1847 3.68587C15.3726 3.68587 15.4624 3.75841 15.4906 3.95466C15.6993 5.41608 15.9206 6.87749 16.1372 8.33891C16.3926 10.0634 16.6477 11.7879 16.9024 13.5123C17.154 15.2107 17.4052 16.9094 17.6561 18.6085C17.658 18.6393 17.658 18.6701 17.6561 18.7009L12.623 19.9535L12.6236 2.52039Z" fill="#1F235A"/>
</svg>
