<svg width="21" height="20" viewBox="0 0 21 20" fill="none" xmlns="http://www.w3.org/2000/svg">
<path d="M20.0551 17.4261C19.9698 17.6526 19.7984 17.7886 19.5928 17.9049C18.4246 18.566 17.2604 19.2346 16.0945 19.9001C16.0399 19.9316 15.9833 19.9587 15.9043 19.9999V19.8034C15.9043 18.277 15.9043 16.7505 15.9043 15.2238C15.9043 15.1244 15.9043 15.0461 16.0159 14.984C17.3288 14.2478 18.6377 13.5041 19.9466 12.7636C19.9812 12.7483 20.0173 12.7367 20.0543 12.729L20.0551 17.4261Z" fill="#1F235A"/>
<path d="M10.3031 0.0015714C10.3571 0.0443022 10.4136 0.0836827 10.4725 0.119491C11.696 0.759665 12.9201 1.39918 14.1449 2.03805C14.2019 2.06792 14.2581 2.10015 14.332 2.14103C14.264 2.18231 14.2097 2.2165 14.1543 2.24834C12.8344 2.99857 11.515 3.74985 10.1961 4.50218C10.0731 4.57293 9.98468 4.57293 9.86165 4.50218C8.54461 3.74645 7.22561 2.99425 5.90465 2.24559C5.84922 2.21375 5.79537 2.17955 5.72266 2.13592C6.57404 1.69137 7.40459 1.25703 8.23592 0.823474C8.69188 0.585276 9.14902 0.348257 9.60419 0.108487C9.65729 0.0759954 9.70799 0.03974 9.75591 0L10.3031 0.0015714Z" fill="#1F235A"/>
<path d="M4.13904 19.9913C4.07654 19.9587 4.02112 19.9316 3.9657 19.9005C2.79475 19.2323 1.62735 18.5574 0.450898 17.8986C0.136445 17.7221 -0.0030926 17.4922 5.19331e-05 17.1282C0.012237 15.7328 0.00516199 14.3375 0.00516199 12.9421V12.7216C0.0548229 12.7391 0.103501 12.7593 0.150988 12.7821C1.44418 13.5132 2.73605 14.2459 4.02662 14.9801C4.08558 15.0139 4.15004 15.1024 4.15004 15.1656C4.15673 16.7505 4.15515 18.3349 4.15437 19.9194C4.1515 19.9438 4.14636 19.9679 4.13904 19.9913Z" fill="#1F235A"/>
<path d="M9.42478 10.4257L8.86859 10.1462C7.73813 9.58174 6.60754 9.01835 5.47682 8.456C5.38287 8.40922 5.32588 8.36481 5.32667 8.2406C5.33217 6.61645 5.3302 4.99269 5.3306 3.36658C5.3306 3.34732 5.33453 3.32727 5.33885 3.28796C5.3858 3.30452 5.43174 3.32381 5.47642 3.34574C6.7552 4.07527 8.03293 4.80677 9.30961 5.54023C9.36935 5.57443 9.43578 5.66169 9.43578 5.72498C9.44246 7.27051 9.4405 8.81605 9.43971 10.3632C9.4364 10.3844 9.43141 10.4053 9.42478 10.4257Z" fill="#1F235A"/>
<path d="M10.6162 10.4245V7.83613C10.6162 7.14473 10.6135 6.45333 10.6206 5.76192C10.6206 5.69314 10.663 5.59212 10.7173 5.56067C12.0207 4.80834 13.3267 4.0606 14.6354 3.31744C14.6627 3.3048 14.6908 3.29377 14.7195 3.28442C14.7226 3.35675 14.7273 3.41296 14.7273 3.46877C14.7273 5.04706 14.7273 6.62536 14.7273 8.20365C14.7273 8.30231 14.7317 8.38171 14.6133 8.43949C13.3111 9.08294 12.0132 9.73425 10.7137 10.3836C10.6925 10.3954 10.6689 10.4032 10.6162 10.4245Z" fill="#1F235A"/>
<path d="M9.44223 12.7106V14.9566C9.44223 15.804 9.44498 16.6515 9.43751 17.4993C9.43751 17.572 9.3872 17.6778 9.32785 17.7123C8.02653 18.467 6.72221 19.2169 5.41487 19.9619C5.39154 19.9719 5.36732 19.9798 5.34255 19.9854C5.33861 19.9249 5.33154 19.8707 5.33154 19.8164C5.33154 18.2837 5.33154 16.7508 5.33154 15.2175C5.33154 15.1173 5.33508 15.0411 5.44514 14.9786C6.73702 14.2472 8.0268 13.5114 9.31448 12.7711C9.34436 12.755 9.37895 12.7404 9.44223 12.7106Z" fill="#1F235A"/>
<path d="M14.7199 19.9976C14.6464 19.9583 14.5949 19.9328 14.5454 19.9045L10.7672 17.7281C10.6827 17.6793 10.61 17.642 10.6124 17.5127C10.6186 15.9467 10.6163 14.3807 10.6167 12.8151C10.6167 12.7904 10.6218 12.7656 10.6265 12.7228C10.6811 12.7475 10.7283 12.7621 10.7708 12.788C12.0443 13.5149 13.318 14.2416 14.5918 14.968C14.6849 15.021 14.7313 15.0757 14.7309 15.1932C14.7262 16.7592 14.7278 18.3248 14.7274 19.8907C14.7274 19.9167 14.7238 19.9422 14.7199 19.9976Z" fill="#1F235A"/>
<path d="M9.06053 11.564L6.59285 12.9739C6.02134 13.3006 5.45296 13.6303 4.87594 13.9495C4.81069 13.9857 4.69473 13.9982 4.63459 13.9644C3.24209 13.1833 1.85208 12.3972 0.464555 11.606C0.447654 11.5962 0.432324 11.584 0.400879 11.5616C0.45748 11.5294 0.50465 11.4991 0.554569 11.4744C1.89676 10.8083 3.23895 10.1416 4.58114 9.47445C4.63012 9.4457 4.68589 9.43054 4.74269 9.43054C4.79949 9.43054 4.85526 9.4457 4.90424 9.47445C6.22495 10.1403 7.54722 10.8031 8.87107 11.463C8.92767 11.4936 8.98348 11.5239 9.06053 11.564Z" fill="#1F235A"/>
<path d="M11.0093 11.5613C11.0753 11.5263 11.1303 11.4948 11.1869 11.4665C12.5095 10.8043 13.8318 10.1414 15.1538 9.47761C15.2028 9.44887 15.2587 9.43372 15.3155 9.43372C15.3724 9.43372 15.4282 9.44887 15.4773 9.47761C16.8181 10.1469 18.1603 10.8134 19.5038 11.4771C19.5494 11.4999 19.5935 11.5263 19.6611 11.5624C19.6009 11.6017 19.5573 11.6324 19.5105 11.6587C18.1607 12.4229 16.8112 13.1872 15.4619 13.9519C15.3715 14.0034 15.3016 14.0305 15.1962 13.9684C13.8291 13.1823 12.4603 12.3986 11.0899 11.6175C11.0655 11.6033 11.0462 11.5864 11.0093 11.5613Z" fill="#1F235A"/>
</svg>
