<svg width="18" height="20" viewBox="0 0 18 20" fill="none" xmlns="http://www.w3.org/2000/svg">
<path d="M8.8188 20H8.6758C8.65205 19.9816 8.62738 19.9645 8.6019 19.9486C5.80424 18.3457 3.00559 16.7432 0.205958 15.141C0.0951057 15.0771 0.0382016 14.9991 0.0378321 14.8657C0.0282249 11.6468 0.015908 8.4279 0.000881396 5.209C-0.00380446 5.14673 0.0102695 5.08448 0.0412892 5.03027C0.0723089 4.97607 0.118852 4.9324 0.174919 4.9049C2.95854 3.28867 5.7408 1.67011 8.52171 0.0492037C8.56939 0.0171307 8.62554 0 8.683 0C8.74046 0 8.79662 0.0171307 8.84429 0.0492037C11.6422 1.65336 14.4412 3.25603 17.2413 4.85723C17.2901 4.8811 17.3307 4.91885 17.358 4.96572C17.3854 5.0126 17.3983 5.06651 17.3951 5.12069C17.4037 8.34599 17.4138 11.5717 17.4254 14.7977C17.4294 14.855 17.4165 14.9123 17.3881 14.9623C17.3596 15.0123 17.3171 15.0527 17.2657 15.0785C14.9009 16.4531 12.536 17.8291 10.1712 19.2067C9.71929 19.4698 9.2696 19.7354 8.8188 20ZM7.28313 10.4216V7.28748C7.28313 7.14596 7.2495 7.11233 7.10983 7.11159C6.87482 7.11159 6.64018 7.11159 6.40555 7.11159C6.21377 7.11159 6.19862 7.12674 6.19862 7.32332C6.19862 9.24919 6.19308 11.1754 6.2049 13.1013C6.2049 13.384 6.11474 13.5698 5.87604 13.6984C5.85239 13.7114 5.82985 13.7269 5.80658 13.7413C5.48954 13.9368 5.16474 13.9667 4.8477 13.7539C4.53067 13.541 4.23432 13.3164 3.92874 13.0961C3.82011 13.0182 3.78094 12.9114 3.78094 12.778C3.78242 10.9607 3.78242 9.14363 3.78094 7.32665C3.77707 7.26751 3.79088 7.20855 3.82062 7.15729C3.85037 7.10603 3.89469 7.06479 3.94796 7.0388C5.52723 6.13055 7.10502 5.21972 8.68134 4.30629C8.80513 4.23239 8.906 4.23018 9.03016 4.30371C10.5678 5.21516 12.1074 6.12464 13.649 7.03215C13.703 7.05951 13.7479 7.10207 13.778 7.15459C13.8081 7.20712 13.8222 7.26731 13.8186 7.32775C13.8159 9.1041 13.8159 10.8803 13.8186 12.6564C13.8229 12.7171 13.8094 12.7778 13.7798 12.831C13.7502 12.8842 13.7058 12.9277 13.6519 12.9561C12.0985 13.8954 10.5466 14.8371 8.99616 15.7813C8.94624 15.8159 8.88753 15.8355 8.82688 15.8379C8.76623 15.8403 8.70614 15.8254 8.65363 15.795C8.02251 15.4846 7.38844 15.1801 6.75547 14.8738C6.63169 14.814 6.5903 14.8287 6.53044 14.9514C6.42156 15.1731 6.31317 15.3963 6.20527 15.621C6.14467 15.7462 6.15872 15.788 6.27918 15.8471C6.46245 15.9363 6.64597 16.025 6.82974 16.1132L8.64033 16.9826C8.71354 17.0196 8.7949 17.0375 8.87686 17.0346C8.95883 17.0318 9.03875 17.0083 9.10923 16.9663C9.16576 16.9353 9.22378 16.9061 9.27883 16.8729C11.0202 15.8188 12.7613 14.7637 14.5022 13.7077C14.7653 13.548 14.8979 13.313 14.8979 13.0056C14.8994 10.9945 14.8994 8.98339 14.8979 6.97229C14.9026 6.83205 14.8683 6.69326 14.7987 6.5714C14.7292 6.44953 14.6272 6.34936 14.504 6.28205C12.7659 5.25433 11.0273 4.22734 9.28844 3.2011C9.00318 3.0326 8.72162 3.03039 8.43155 3.19851C6.67418 4.2186 4.91471 5.23597 3.15315 6.25064C2.84572 6.42837 2.69828 6.67631 2.69902 7.0303C2.70272 8.43443 2.69902 9.84077 2.69902 11.2464C2.69902 11.8317 2.69902 12.417 2.69902 13.0019C2.69902 13.1719 2.69902 13.3474 2.81246 13.49C3.16793 13.936 3.56219 14.338 4.05474 14.6314C4.53067 14.9145 5.03985 15.0519 5.59707 14.9618C6.12879 14.876 6.55409 14.6004 6.93616 14.2338C7.18521 13.9948 7.29421 13.7228 7.28867 13.3725C7.27315 12.3885 7.28313 11.4049 7.28313 10.4216ZM10.2824 7.26457C9.85952 7.25777 9.43992 7.33998 9.05085 7.50586C8.32477 7.82511 7.93531 8.56708 8.10491 9.32198C8.22722 9.86738 8.57973 10.221 9.09297 10.3995C9.58589 10.5705 10.0932 10.7021 10.5932 10.8532C10.8563 10.933 11.123 11.0047 11.3787 11.1034C11.6847 11.2216 11.8258 11.4707 11.7819 11.7921C11.7279 12.1864 11.4756 12.4221 11.1168 12.5411C10.707 12.6764 10.2872 12.6734 9.86857 12.5733C9.50497 12.4868 9.23634 12.2828 9.08928 11.9329C9.0357 11.8043 8.98397 11.6743 8.93593 11.5446C8.90305 11.4548 8.84725 11.4115 8.75118 11.4278C8.51654 11.4666 8.28153 11.5036 8.0469 11.5435C7.93309 11.5627 7.90353 11.607 7.94898 11.7131C8.06685 11.9876 8.18472 12.2622 8.3159 12.5304C8.50065 12.9073 8.80882 13.1523 9.20272 13.2809C9.97868 13.5333 10.7598 13.5517 11.5358 13.2838C12.0265 13.1146 12.4226 12.8146 12.6443 12.3357C12.9111 11.7666 12.9115 11.2028 12.5368 10.6729C12.3321 10.3832 12.0313 10.2199 11.7013 10.1186C11.1042 9.93389 10.5019 9.76761 9.90441 9.5847C9.70451 9.52373 9.50054 9.45685 9.32096 9.35376C9.20747 9.29128 9.11946 9.19101 9.07221 9.07039C9.02495 8.94976 9.02145 8.81639 9.0623 8.69345C9.09581 8.58347 9.15515 8.48311 9.23538 8.40077C9.3156 8.31842 9.41438 8.25647 9.52345 8.22011C9.94321 8.06418 10.3733 8.05716 10.809 8.15249C11.1168 8.22011 11.3447 8.39378 11.4741 8.68754C11.511 8.77142 11.5458 8.85604 11.5801 8.94102C11.5908 8.97747 11.6146 9.00865 11.647 9.02846C11.6794 9.04828 11.718 9.05531 11.7553 9.04818C11.991 9.01677 12.2268 8.98536 12.4625 8.95211C12.5638 8.93807 12.5963 8.88818 12.5663 8.78694C12.5238 8.64394 12.4769 8.50205 12.4307 8.35979C12.3158 8.00691 12.0771 7.76303 11.7542 7.59269C11.2912 7.34992 10.7946 7.27418 10.2824 7.26457Z" fill="#1F235A"/>
</svg>
