<svg width="19" height="20" viewBox="0 0 19 20" fill="none" xmlns="http://www.w3.org/2000/svg">
<path d="M9.64956 0L16.7058 3.40494C17.5751 3.82455 18.0077 4.54258 18.0077 5.47894C18.0077 6.43533 17.5851 7.16539 16.6948 7.59602C14.523 8.64754 12.3531 9.7014 10.1853 10.7576C9.89599 10.9081 9.57463 10.9867 9.24848 10.9867C8.92232 10.9867 8.60096 10.9081 8.31162 10.7576C6.14247 9.70073 3.97266 8.64687 1.80218 7.59602C0.910885 7.16539 0.485265 6.43233 0.491274 5.47894C0.497282 4.54459 0.926906 3.82555 1.79316 3.40594L8.8504 0.00100243L9.64956 0Z" fill="#1F235A"/>
<path d="M9.26621 15.5215C8.9117 15.3973 8.5652 15.3212 8.26476 15.1649C5.73209 13.799 3.19941 12.43 0.689771 11.0219C0.398349 10.8587 0.155998 10.4811 0.0488422 10.1517C-0.093364 9.71704 0.09691 9.29942 0.497491 9.02803C0.872034 8.77466 1.24257 8.83575 1.62413 9.04506C3.97353 10.3319 6.33095 11.5998 8.67235 12.9037C9.08395 13.133 9.38338 13.151 9.80299 12.9157C12.0983 11.6348 14.4097 10.388 16.72 9.13118C17.4781 8.71758 18.0219 8.81272 18.3484 9.41059C18.6839 10.0285 18.4485 10.6874 17.7475 11.073C15.2666 12.4303 12.7833 13.7833 10.2977 15.1319C9.98425 15.3011 9.62473 15.3933 9.26621 15.5215Z" fill="#1F235A"/>
<path d="M9.24901 20C8.89349 19.8728 8.54799 19.7997 8.24756 19.6355C5.7299 18.2762 3.21726 16.9075 0.709624 15.5295C0.0536727 15.171 -0.165645 14.5431 0.12778 13.9362C0.421206 13.3293 0.988028 13.1801 1.64198 13.5356C3.80612 14.7103 5.99629 15.839 8.11336 17.0928C8.95759 17.5935 9.57048 17.5685 10.3987 17.0818C12.4777 15.862 14.6208 14.7504 16.7389 13.5967C17.4709 13.1961 18.0077 13.2893 18.3412 13.8611C18.6917 14.468 18.4664 15.163 17.7794 15.5365C15.2844 16.9025 12.7865 18.2631 10.2855 19.6184C9.96605 19.7927 9.60452 19.8748 9.24901 20Z" fill="#1F235A"/>
</svg>
