<svg width="24" height="20" viewBox="0 0 24 20" fill="none" xmlns="http://www.w3.org/2000/svg">
<path d="M0 0.0145702H0.803746C1.80302 0.0145702 2.80301 0.0225099 3.80156 0.00880145C4.02306 0.00880145 4.13561 0.0852775 4.24311 0.267816C6.61732 4.28606 8.99585 8.30239 11.3787 12.3168C11.4227 12.3889 11.4739 12.4611 11.5374 12.5585C11.5995 12.4611 11.6485 12.3897 11.6926 12.3153C14.0735 8.30094 16.453 4.28462 18.831 0.266371C18.9385 0.0838331 19.0475 0.00447036 19.2711 0.00663485C20.4328 0.0196218 21.5944 0.0124036 22.756 0.0124036H23.0749L11.5353 20C7.68609 13.3312 3.85928 6.70139 0 0.0145702Z" fill="#1F235A"/>
<path d="M11.5354 10.889C9.3774 7.24612 7.24827 3.65091 5.10254 0.0275604C5.19345 0.0189025 5.2591 0.00664307 5.32404 0.00664307C6.43153 0.00664307 7.53903 0.00663813 8.64652 0.00158767C8.716 -0.00522415 8.78585 0.00999535 8.84619 0.045087C8.90653 0.0801787 8.95431 0.13337 8.98274 0.197119C9.7735 1.57806 10.5671 2.95708 11.3637 4.33417C11.412 4.41714 11.4647 4.49723 11.5361 4.61267C11.7244 4.29016 11.8969 3.99939 12.065 3.70719C12.7367 2.54774 13.4098 1.38902 14.0751 0.226694C14.1645 0.0708509 14.2569 -0.00129092 14.4495 0.000152074C15.609 0.0109745 16.7684 0.00592087 17.9848 0.00592087L11.5354 10.889Z" fill="#1F235A"/>
</svg>
