<svg width="21" height="20" viewBox="0 0 21 20" fill="none" xmlns="http://www.w3.org/2000/svg">
<path d="M20.0044 5V17.8129C19.9914 17.8345 19.981 17.8576 19.9736 17.8817C19.7299 19.1713 18.7415 20 17.4379 20C12.478 20 7.51806 20 2.55789 20C1.09928 20 0.0049164 18.9015 0.00439453 17.4429C0.00439453 13.3681 0.00439453 9.29358 0.00439453 5.21919V5.00157L20.0044 5ZM8.17369 17.0551C8.25288 17.4895 8.48255 17.8821 8.82238 18.1641C9.17673 18.4563 9.58535 18.616 10.0467 18.5931C11.032 18.5409 11.6123 17.9919 11.8732 17.0603C12.6821 17.517 13.4774 17.53 14.1725 16.8965C14.9496 16.1899 14.984 15.3345 14.4935 14.4369C15.5602 14.1666 15.9949 13.3619 16.0033 12.6829C16.0153 11.6449 15.4595 11.0176 14.4789 10.7363C14.946 9.91232 14.9486 9.10815 14.2952 8.4078C13.5896 7.6511 12.7432 7.63231 11.8607 8.10877C11.6217 7.24561 11.0455 6.67728 10.2768 6.60787C9.15532 6.50611 8.47638 7.06764 8.157 8.11451C7.25574 7.55089 6.31741 7.79252 5.77467 8.32325C5.27525 8.81329 4.93969 9.74429 5.54244 10.7317C4.57125 11.0009 4.00242 11.6147 4.00189 12.6453C4.00189 13.5069 4.5201 14.0899 5.52261 14.4447C5.04092 15.3168 5.06076 16.1575 5.80077 16.8636C6.50894 17.542 7.32461 17.5357 8.17369 17.0572V17.0551Z" fill="#1F235A"/>
<path d="M2.19138 0H17.8166C17.845 0.0139355 17.8747 0.0251139 17.9053 0.0333938C18.6761 0.168035 19.2741 0.567263 19.6541 1.24726C19.8153 1.53585 19.8905 1.87349 20.0042 2.18661V3.82684H0.00371105C0.00371105 3.36707 -0.00463881 2.9261 0.00371105 2.48564C0.0256294 1.56403 0.424347 0.839674 1.21602 0.369473C1.51192 0.196213 1.86522 0.120551 2.19138 0ZM12.5979 2.49973H16.7775C17.1162 2.49973 17.456 2.5086 17.7931 2.49712C17.8946 2.49581 17.9939 2.4679 18.0812 2.41617C18.1685 2.36443 18.2407 2.29068 18.2906 2.2023C18.3404 2.11392 18.3662 2.014 18.3654 1.91252C18.3645 1.81104 18.3371 1.71157 18.2857 1.62404C18.1542 1.39651 17.945 1.32606 17.6913 1.32658C14.3058 1.32867 10.9205 1.32867 7.53529 1.32658C7.48936 1.32658 7.44397 1.32658 7.39856 1.32658C7.27766 1.33582 7.16257 1.38227 7.06912 1.45954C6.97568 1.53682 6.90847 1.64114 6.8767 1.75816C6.77233 2.15113 7.05778 2.49556 7.4998 2.49556C9.19935 2.49973 10.8987 2.50113 12.5979 2.49973ZM2.62661 2.49973C2.76908 2.49973 2.91208 2.50287 3.05455 2.49973C3.3995 2.48982 3.64843 2.2388 3.64477 1.90689C3.64437 1.83069 3.62888 1.75534 3.5992 1.68516C3.56952 1.61498 3.52624 1.55136 3.47185 1.498C3.41747 1.44463 3.35305 1.40256 3.28232 1.37422C3.21159 1.34587 3.13595 1.3318 3.05976 1.33284C2.7743 1.32657 2.48832 1.32657 2.20338 1.33284C2.04837 1.33214 1.89942 1.39306 1.78932 1.50219C1.67922 1.61131 1.61698 1.75971 1.61629 1.91472C1.61559 2.06974 1.67651 2.21867 1.78564 2.32878C1.89476 2.43888 2.04314 2.50113 2.19816 2.50182C2.34063 2.50391 2.48362 2.49921 2.62661 2.49973ZM5.25003 2.49973C5.40659 2.49973 5.56316 2.50808 5.71711 2.49973C5.86553 2.49008 6.00464 2.42411 6.10604 2.31531C6.20744 2.20651 6.26348 2.0631 6.26268 1.91438C6.26188 1.76566 6.20431 1.62286 6.10175 1.51516C5.99918 1.40746 5.85935 1.34298 5.71085 1.33493C5.4066 1.32344 5.10078 1.32397 4.79601 1.33493C4.64434 1.3402 4.50069 1.40438 4.39555 1.51383C4.29041 1.62328 4.23205 1.76939 4.23287 1.92116C4.23368 2.07292 4.2936 2.2184 4.39991 2.32671C4.50622 2.43503 4.65056 2.49765 4.80228 2.5013C4.95101 2.50495 5.10078 2.49921 5.25003 2.49921V2.49973Z" fill="#1F235A"/>
<path d="M7.17631 16.2211C6.78804 16.2039 6.56834 16.075 6.4457 15.8062C6.38503 15.6859 6.36315 15.5497 6.38305 15.4165C6.40296 15.2832 6.46367 15.1594 6.55685 15.0621C6.68053 14.9201 6.82196 14.7933 6.95347 14.6581C7.15596 14.4494 7.20867 14.213 7.08498 13.9432C7.04741 13.8607 7.01505 13.7751 6.98061 13.6906C6.87624 13.4244 6.67427 13.2955 6.39247 13.2898C6.21034 13.2856 6.02716 13.2898 5.84607 13.2862C5.66676 13.2829 5.49569 13.2102 5.36894 13.0833C5.24219 12.9565 5.16965 12.7853 5.1666 12.606C5.16356 12.4267 5.23025 12.2532 5.35262 12.1221C5.47499 11.991 5.64348 11.9125 5.82258 11.9032C6.01045 11.8912 6.19989 11.8985 6.38829 11.8964C6.68105 11.8933 6.88041 11.7545 6.98739 11.482C7.01835 11.4031 7.05019 11.3248 7.0829 11.2472C7.20919 10.9461 7.17057 10.7394 6.9399 10.5025C6.83553 10.395 6.7275 10.2938 6.62365 10.1831C6.31992 9.87002 6.31054 9.43843 6.6033 9.15714C6.89607 8.87586 7.31304 8.89933 7.61467 9.20202C7.71905 9.30639 7.82081 9.41911 7.92779 9.52505C8.14906 9.74788 8.37034 9.79277 8.65841 9.67587C8.74869 9.63934 8.83897 9.60282 8.92873 9.56472C9.17453 9.46035 9.31075 9.27978 9.31753 9.01049C9.32223 8.83463 9.31752 8.65875 9.3217 8.4834C9.33579 8.0513 9.62595 7.75854 10.0299 7.76324C10.4338 7.76794 10.7083 8.06956 10.7135 8.50532C10.7135 8.66814 10.7135 8.83097 10.7135 8.99327C10.7203 9.26725 10.8456 9.46295 11.1018 9.57046C11.1915 9.60855 11.2808 9.64769 11.3711 9.6837C11.6257 9.78494 11.8559 9.74946 12.0552 9.55636C12.181 9.43373 12.3021 9.30638 12.4294 9.18479C12.7258 8.90246 13.1527 8.90195 13.4267 9.1801C13.7007 9.45826 13.6975 9.86845 13.4199 10.1628C13.2952 10.2953 13.159 10.4185 13.0353 10.551C12.9473 10.635 12.8879 10.7446 12.8655 10.8641C12.8431 10.9837 12.8589 11.1073 12.9106 11.2175C12.9502 11.313 12.9909 11.409 13.0306 11.505C13.0708 11.6197 13.146 11.7189 13.2455 11.7888C13.3449 11.8586 13.4638 11.8955 13.5853 11.8943C13.7675 11.9006 13.9507 11.8943 14.1323 11.899C14.5445 11.9147 14.8477 12.2174 14.8415 12.602C14.8352 12.9866 14.5284 13.2804 14.1161 13.2877C13.9533 13.2908 13.7904 13.2877 13.6281 13.2877C13.338 13.2908 13.1324 13.4213 13.0238 13.6948C12.9852 13.7913 12.9419 13.8863 12.9054 13.9834C12.8606 14.0892 12.8489 14.2062 12.8719 14.3188C12.8949 14.4315 12.9515 14.5345 13.0343 14.6143C13.159 14.7468 13.2952 14.8705 13.4194 15.0026C13.7054 15.3026 13.7095 15.7227 13.4335 16.0004C13.1574 16.278 12.7389 16.2764 12.4352 15.991C12.3026 15.8662 12.1789 15.73 12.0453 15.6079C11.9648 15.5259 11.8612 15.4703 11.7484 15.4484C11.6355 15.4265 11.5187 15.4393 11.4133 15.4853C11.3225 15.5202 11.2343 15.562 11.143 15.5965C10.8539 15.7071 10.7114 15.9158 10.7125 16.2227C10.7125 16.3986 10.7161 16.5744 10.7125 16.7498C10.7087 16.9239 10.6389 17.0902 10.5172 17.2149C10.3955 17.3396 10.231 17.4134 10.057 17.4214C9.67866 17.436 9.36971 17.1808 9.33265 16.8046C9.31334 16.611 9.3217 16.4147 9.32117 16.2196C9.32117 15.9184 9.1855 15.7128 8.89899 15.609C8.80714 15.5756 8.71894 15.5343 8.62866 15.4973C8.51858 15.446 8.39519 15.4305 8.27584 15.4529C8.15648 15.4754 8.04717 15.5347 7.96328 15.6226C7.83072 15.7473 7.71591 15.895 7.57135 16.0025C7.44628 16.0867 7.3141 16.1599 7.17631 16.2211ZM10.0038 14.5407C10.3892 14.5402 10.7659 14.4254 11.0861 14.2108C11.4064 13.9963 11.6558 13.6916 11.8029 13.3353C11.9499 12.979 11.9881 12.5871 11.9125 12.2091C11.8368 11.8311 11.6508 11.4841 11.378 11.2118C11.1051 10.9395 10.7577 10.7543 10.3795 10.6794C10.0014 10.6046 9.60956 10.6436 9.25357 10.7914C8.89759 10.9393 8.59342 11.1894 8.37955 11.5101C8.16567 11.8307 8.05169 12.2076 8.052 12.5931C8.0527 13.1101 8.25868 13.6058 8.62468 13.971C8.99068 14.3362 9.48673 14.5411 10.0038 14.5407Z" fill="#1F235A"/>
<path d="M9.99412 13.367C9.89147 13.3668 9.78989 13.3462 9.6953 13.3063C9.60071 13.2665 9.51501 13.2081 9.44321 13.1348C9.37141 13.0614 9.31494 12.9745 9.27709 12.8791C9.23925 12.7837 9.22079 12.6816 9.2228 12.579C9.22446 12.4248 9.27181 12.2746 9.35885 12.1473C9.44589 12.02 9.56872 11.9214 9.71181 11.8639C9.8549 11.8064 10.0118 11.7927 10.1627 11.8244C10.3136 11.8561 10.4517 11.9318 10.5596 12.042C10.6675 12.1522 10.7402 12.292 10.7687 12.4435C10.7972 12.5951 10.78 12.7516 10.7195 12.8935C10.659 13.0353 10.5578 13.156 10.4287 13.2403C10.2995 13.3246 10.1483 13.3687 9.99412 13.367Z" fill="#1F235A"/>
</svg>
