<svg width="20" height="20" viewBox="0 0 20 20" fill="none" xmlns="http://www.w3.org/2000/svg">
<path d="M17.2844 11.9887H2.67285V3.3479H17.2844V11.9887ZM11.3309 4.94739C11.2753 4.87794 11.2198 4.75516 11.132 4.71405C11.0796 4.69439 11.0238 4.68525 10.9678 4.68715C10.9119 4.68906 10.8568 4.70197 10.8059 4.72516C10.7286 4.7635 10.6736 4.88017 10.642 4.9735C10.2781 6.04909 9.91972 7.12689 9.56193 8.20415C9.26896 9.08417 8.97655 9.96475 8.68469 10.8459C8.60746 11.0814 8.68191 11.2498 8.88191 11.3159C9.08192 11.382 9.23581 11.282 9.32137 11.0259C9.97028 9.08176 10.6184 7.13727 11.2659 5.1924C11.2864 5.12851 11.3009 5.06073 11.3309 4.94739ZM5.84905 8.00303C5.90461 7.95358 5.94294 7.91636 5.98406 7.88192C6.48296 7.46413 6.98297 7.04634 7.4841 6.62855C7.67355 6.4691 7.70633 6.28187 7.58188 6.12187C7.45743 5.96186 7.2552 5.9552 7.06964 6.10798C6.42518 6.64355 5.78238 7.1806 5.14125 7.71913C4.9468 7.88303 4.93403 8.09692 5.1207 8.25526C5.78738 8.81972 6.45722 9.37899 7.1302 9.93308C7.16268 9.96232 7.20096 9.98438 7.24254 9.99783C7.28412 10.0113 7.32807 10.0158 7.37152 10.0112C7.41497 10.0065 7.45695 9.99272 7.49473 9.97075C7.5325 9.94878 7.56523 9.9191 7.59077 9.88364C7.70966 9.73919 7.69632 9.55585 7.54799 9.42029C7.43076 9.31307 7.30409 9.21584 7.18187 9.11362L5.84905 8.00303ZM14.1121 7.99525C14.0509 8.05081 14.0065 8.09081 13.9604 8.1297C13.4554 8.55193 12.9487 8.9725 12.4453 9.39696C12.2787 9.53641 12.2548 9.72197 12.3709 9.87253C12.4953 10.0336 12.6892 10.0559 12.8637 9.91142C13.5204 9.36844 14.1745 8.82213 14.826 8.27248C15.0254 8.10581 15.0232 7.89136 14.8221 7.72136C14.1769 7.17542 13.5287 6.63299 12.8776 6.09409C12.7042 5.9502 12.5042 5.96908 12.3809 6.12464C12.2576 6.2802 12.2898 6.46688 12.4653 6.61577C12.6409 6.76466 12.817 6.908 12.992 7.05467C13.3615 7.36579 13.7315 7.67691 14.1126 7.99636L14.1121 7.99525Z" fill="#1F235A"/>
<path d="M1.98561 1.99945V2.66614C1.68282 2.66614 1.38059 2.66614 1.07892 2.66614C0.777243 2.66614 0.664462 2.77725 0.664462 3.08004C0.664462 6.21827 0.664462 9.3567 0.664462 12.4953C0.664462 12.5425 0.668351 12.5903 0.671129 12.652H19.2961V3.13671C19.2961 2.76114 19.2016 2.66614 18.8339 2.66447C18.5639 2.66447 18.2937 2.66317 18.0233 2.66058C18.0111 2.66058 17.9988 2.65058 17.9761 2.64114V2.03001C18.3872 2.03001 18.8055 1.98167 19.2072 2.04223C19.6805 2.1139 19.9606 2.53891 19.9606 3.0517C19.9606 5.14843 19.9606 7.24534 19.9606 9.34243C19.9606 11.1892 19.9606 13.0361 19.9606 14.8831C19.9606 15.5887 19.5555 15.9943 18.8533 15.9943H1.09947C0.409455 15.9943 0 15.5854 0 14.8948C0 10.9647 0 7.03478 0 3.10504C0 2.40002 0.404455 1.9939 1.10836 1.9939L1.98561 1.99945ZM9.98139 13.9998C9.76749 13.9998 9.55304 13.9959 9.33915 13.9998C9.10692 14.0048 8.97692 14.1309 8.98025 14.3381C8.98358 14.5365 9.11025 14.6609 9.3297 14.6631C9.75805 14.6681 10.1864 14.6676 10.6147 14.6631C10.8431 14.6631 10.9797 14.527 10.9759 14.3248C10.972 14.1226 10.8375 14.0026 10.6031 13.9987C10.3958 13.9959 10.1886 13.9998 9.98139 13.9998Z" fill="#1F235A"/>
<path d="M2.66444 2.64896C2.66444 2.0595 2.64722 1.48226 2.67 0.908359C2.68889 0.415567 3.12223 0.019445 3.61447 0C3.68336 0 3.75281 0 3.82225 0H16.1298C16.9193 0 17.2965 0.381122 17.2965 1.17837V2.64896H2.66444ZM13.6614 1.33282C13.0097 1.33282 12.3586 1.33282 11.7075 1.33282C11.4402 1.33282 11.3036 1.45337 11.308 1.67505C11.3119 1.88839 11.4458 1.9995 11.7036 1.9995C12.9847 1.9995 14.2662 1.9995 15.5481 1.9995C15.8143 1.9995 15.9609 1.87894 15.962 1.66616C15.9631 1.45337 15.8204 1.33282 15.5526 1.33282C14.9218 1.33282 14.2914 1.33282 13.6614 1.33282ZM4.32782 1.33282C4.24008 1.33281 4.15588 1.36739 4.09348 1.42907C4.03108 1.49074 3.9955 1.57454 3.99448 1.66227C3.99547 1.7497 4.03037 1.83333 4.09184 1.89552C4.1533 1.95771 4.23652 1.9936 4.32393 1.99561C4.41198 1.99446 4.4961 1.95897 4.55837 1.8967C4.62064 1.83444 4.65613 1.75032 4.65728 1.66227C4.65626 1.57473 4.62084 1.4911 4.55867 1.42946C4.49651 1.36782 4.41259 1.3331 4.32504 1.33282H4.32782ZM5.66786 1.33282C5.58047 1.33085 5.49581 1.36329 5.43211 1.42315C5.36841 1.483 5.33077 1.56548 5.3273 1.65282C5.32645 1.7401 5.35931 1.82433 5.41903 1.88798C5.47874 1.95163 5.56071 1.98978 5.64786 1.9945C5.73519 1.99545 5.81947 1.96243 5.88291 1.90241C5.94635 1.84239 5.98398 1.76007 5.98787 1.67282C5.98969 1.58553 5.95718 1.50101 5.89734 1.43743C5.8375 1.37385 5.7551 1.33629 5.66786 1.33282ZM7.31902 1.68171C7.32327 1.59401 7.29274 1.50817 7.23407 1.44285C7.1754 1.37752 7.09333 1.33798 7.00567 1.33282C6.91833 1.32855 6.83281 1.35877 6.76755 1.41697C6.70228 1.47517 6.6625 1.55668 6.65678 1.64393C6.65377 1.73121 6.68445 1.81631 6.74248 1.88157C6.80051 1.94684 6.88142 1.98727 6.96845 1.9945C7.05561 1.99734 7.14051 1.96647 7.20549 1.90832C7.27047 1.85017 7.31054 1.76921 7.31735 1.68227L7.31902 1.68171Z" fill="#1F235A"/>
<path d="M9.96795 19.9999H5.7895C5.42171 19.9999 5.32282 19.8999 5.32227 19.531C5.32227 19.3505 5.32227 19.1699 5.32227 18.9894C5.33393 18.4432 5.75783 18.0032 6.29951 18.0021C8.75255 17.9977 11.2056 17.9977 13.6586 18.0021C13.915 18.0052 14.1602 18.108 14.3423 18.2886C14.5243 18.4692 14.629 18.7135 14.6342 18.9699C14.6414 19.171 14.6375 19.3727 14.6342 19.5738C14.6342 19.8849 14.5181 19.9994 14.2058 19.9994C12.7943 19.9998 11.3817 19.9999 9.96795 19.9999Z" fill="#1F235A"/>
<path d="M12.4265 17.3293H7.53418C7.64196 17.1205 7.7403 16.9182 7.85141 16.7232C7.869 16.7049 7.89026 16.6904 7.91381 16.6808C7.93737 16.6713 7.96267 16.6668 7.98808 16.6677C9.31701 16.6643 10.6459 16.6643 11.9749 16.6677C12.0029 16.6694 12.0303 16.6772 12.055 16.6906C12.0797 16.7039 12.1013 16.7224 12.1182 16.7449C12.2238 16.9288 12.3182 17.1199 12.4265 17.3293Z" fill="#1F235A"/>
</svg>
