<svg width="22" height="20" viewBox="0 0 22 20" fill="none" xmlns="http://www.w3.org/2000/svg">
<path d="M9.15691 2.36035V2.64737C9.15691 4.33177 9.16988 6.01616 9.14984 7.69997C9.14336 8.30524 9.37675 8.76612 9.81936 9.14214C10.4199 9.6537 11.1307 9.95251 11.8821 10.1405C14.1547 10.7069 16.4114 10.6898 18.6185 9.84996C19.0694 9.67846 19.4902 9.39438 19.8786 9.10088C20.3212 8.76671 20.5216 8.29404 20.5157 7.71588C20.4986 6.03915 20.5098 4.36241 20.5098 2.68509V2.42224C20.9724 2.42518 21.4704 2.90905 21.5606 3.43594C21.58 3.5445 21.5901 3.65452 21.5907 3.7648C21.5907 7.50843 21.5907 11.2521 21.5907 14.9957C21.5907 15.6935 21.2011 16.2145 20.574 16.3665C20.4449 16.3942 20.313 16.4068 20.1809 16.4043C13.925 16.4043 7.66878 16.4043 1.41211 16.4043C0.569914 16.4043 0.00412553 15.855 0.00353617 15.0169C-0.00117872 11.2662 -0.00117872 7.5155 0.00353617 3.7648C0.00353617 2.91612 0.57404 2.36035 1.42331 2.36035C3.9226 2.36035 6.42208 2.36035 8.92176 2.36035H9.15691ZM9.96375 14.414H13.4445C13.5105 14.414 13.5948 14.437 13.6384 14.4051C13.7286 14.3391 13.8577 14.2431 13.8571 14.1594C13.8565 14.0757 13.7233 13.9879 13.6361 13.9166C13.6042 13.8912 13.5365 13.9089 13.4852 13.9089H6.45823C6.39929 13.9089 6.32326 13.89 6.28554 13.9189C6.20244 13.9832 6.09872 14.0627 6.07632 14.1547C6.04273 14.2914 6.14115 14.3904 6.28554 14.4093C6.35134 14.4158 6.41752 14.4175 6.48357 14.4146L9.96375 14.414ZM17.2842 12.5351C18.1152 12.5351 18.946 12.5351 19.7766 12.5351C19.8574 12.5351 19.957 12.5528 20.0124 12.5133C20.0913 12.4579 20.1892 12.3553 20.185 12.2775C20.1809 12.1997 20.0796 12.1078 20.0082 12.0418C19.9794 12.0147 19.9092 12.0306 19.858 12.0306H14.7399C14.6963 12.0306 14.6344 12.0153 14.6115 12.0383C14.5354 12.1143 14.4282 12.2003 14.4205 12.2899C14.414 12.3636 14.5207 12.4667 14.5973 12.5215C14.6474 12.5575 14.7393 12.5398 14.8124 12.5398C15.6364 12.5374 16.4603 12.5359 17.2842 12.5351ZM2.03448 8.34002C2.54074 7.92746 3.02401 7.53023 3.50788 7.13359C3.67526 6.99627 3.71003 6.83891 3.60866 6.72104C3.50729 6.60317 3.35052 6.60317 3.18138 6.74226C2.63524 7.1886 2.08948 7.63573 1.54413 8.08365C1.32017 8.26753 1.32017 8.41722 1.54413 8.60051C2.08359 9.04371 2.62364 9.48613 3.16428 9.92776C3.34757 10.078 3.50435 10.0898 3.60866 9.9643C3.71298 9.83876 3.67467 9.68671 3.49079 9.53583C3.01282 9.14155 2.53544 8.7508 2.03448 8.34002ZM8.0106 8.33589C7.95461 8.38422 7.91159 8.4237 7.8668 8.46024C7.42419 8.82447 6.98276 9.18634 6.53897 9.55174C6.36982 9.69201 6.33269 9.84642 6.44585 9.9643C6.58082 10.1022 6.71754 10.0663 6.85487 9.9531C7.40474 9.50047 7.95815 9.05196 8.50508 8.59757C8.73375 8.40956 8.73375 8.26929 8.50508 8.08129C7.95579 7.62807 7.40179 7.18015 6.85487 6.72575C6.71813 6.61319 6.57433 6.57075 6.4482 6.71633C6.32208 6.8619 6.38278 7.00217 6.52187 7.11355C6.58081 7.15894 6.63562 7.20608 6.69279 7.25264L8.0106 8.33589ZM3.8338 12.0247H1.78518C1.61367 12.0247 1.49403 12.0954 1.4905 12.277C1.48696 12.4585 1.61249 12.5292 1.78046 12.5345C1.8394 12.5345 1.89834 12.5345 1.95727 12.5345H5.72388C5.77516 12.5345 5.82643 12.5345 5.87771 12.5345C6.04037 12.5268 6.15412 12.4461 6.15235 12.2811C6.15235 12.1043 6.03448 12.0247 5.85767 12.0253C5.18383 12.0261 4.50921 12.0259 3.8338 12.0247ZM5.75099 6.58843C5.69206 6.5348 5.61662 6.40691 5.53646 6.40396C5.47963 6.40708 5.42431 6.4234 5.3749 6.45164C5.32548 6.47988 5.28334 6.51925 5.2518 6.56663C5.16812 6.734 5.14042 6.92967 5.09091 7.11414C4.8422 8.04337 4.59388 8.9726 4.34596 9.90182C4.28702 10.1346 4.38839 10.3091 4.5817 10.2949C4.75085 10.2826 4.80683 10.1582 4.84514 10.0132C5.13039 8.94176 5.41682 7.87069 5.70443 6.80001C5.71445 6.75051 5.72388 6.70041 5.75099 6.58843ZM6.31914 4.87103C6.79063 4.87103 7.25858 4.87103 7.72889 4.87103C7.95521 4.87103 8.08251 4.72369 8.02357 4.54158C7.97289 4.37538 7.83733 4.35416 7.6894 4.35416C6.7865 4.35416 5.8836 4.35416 4.97834 4.35416C4.73022 4.35416 4.61824 4.4355 4.61588 4.60877C4.61352 4.78204 4.72786 4.87045 4.9695 4.87103C5.42095 4.87221 5.86886 4.87103 6.31678 4.87103H6.31914ZM3.23383 13.9083C2.77118 13.9083 2.30853 13.9083 1.84647 13.9083C1.60189 13.9083 1.4793 13.9949 1.49285 14.1659C1.50818 14.3786 1.6567 14.4146 1.83645 14.414C2.76961 14.414 3.70218 14.414 4.63415 14.414C4.8145 14.414 4.96184 14.3768 4.97775 14.1647C4.98954 13.9997 4.86989 13.9095 4.64417 13.9083C4.1715 13.9065 3.70119 13.9083 3.23147 13.9083H3.23383ZM2.50656 4.35357C2.26433 4.35357 2.02269 4.35004 1.78046 4.35357C1.61367 4.35357 1.49109 4.43019 1.49344 4.61407C1.4958 4.79795 1.62016 4.86809 1.78812 4.86867C2.27179 4.87103 2.75566 4.87103 3.23972 4.86867C3.40769 4.86867 3.52851 4.79265 3.52674 4.60818C3.52497 4.42371 3.39885 4.35652 3.23206 4.35357C2.98807 4.35063 2.74525 4.35357 2.5042 4.35357H2.50656ZM12.4344 12.5345C12.6701 12.5345 12.9058 12.5345 13.138 12.5345C13.3048 12.5345 13.4327 12.4655 13.4386 12.2864C13.4422 12.0954 13.3125 12.0223 13.1322 12.0229C12.6638 12.0229 12.1951 12.0229 11.7259 12.0229C11.5556 12.0229 11.4313 12.0919 11.4254 12.2699C11.4201 12.4638 11.5544 12.5333 11.7312 12.5345C11.9635 12.5357 12.198 12.5345 12.432 12.5345H12.4344ZM8.12258 12.5345C8.3654 12.5345 8.60822 12.538 8.85044 12.5345C9.02018 12.531 9.13923 12.4544 9.13039 12.2681C9.12273 12.0972 9.01252 12.0265 8.84868 12.0265C8.37071 12.0265 7.89273 12.0265 7.41476 12.0265C7.23795 12.0265 7.12361 12.1007 7.12008 12.2817C7.11654 12.4626 7.24502 12.5351 7.41476 12.5363C7.64991 12.5357 7.88507 12.5345 8.12022 12.5345H8.12258ZM19.3146 13.9089C19.1018 13.9089 18.889 13.9089 18.6763 13.9089C18.5113 13.9089 18.4016 13.9914 18.3999 14.1564C18.3981 14.3214 18.5024 14.4104 18.6686 14.4116C19.0941 14.4116 19.5197 14.4116 19.9452 14.4116C20.112 14.4116 20.2181 14.3262 20.221 14.1629C20.2239 13.9997 20.1196 13.9101 19.9528 13.9083C19.7377 13.9083 19.525 13.9095 19.3122 13.9089H19.3146ZM16.1974 14.4134H16.8133C16.9872 14.4134 17.1033 14.3309 17.1009 14.1541C17.1009 13.989 16.983 13.9095 16.8221 13.9095C16.4037 13.9095 15.9858 13.9095 15.568 13.9095C15.3912 13.9095 15.2774 13.9896 15.2816 14.1682C15.2857 14.3468 15.4089 14.4175 15.581 14.4152C15.7843 14.4116 15.9894 14.4134 16.1951 14.4134H16.1974Z" fill="#1F235A"/>
<path d="M15.1217 8.91987e-06C16.1613 0.0117962 17.472 0.158548 18.6908 0.737301C19.0542 0.910751 19.3876 1.14093 19.6786 1.41919C20.1324 1.85768 20.1053 2.36217 19.668 2.81952C19.2684 3.24091 18.758 3.48667 18.2223 3.67704C16.8939 4.14853 15.5183 4.27229 14.1203 4.19155C13.0884 4.13261 12.0723 3.97113 11.1252 3.54325C10.7373 3.37037 10.3768 3.14184 10.0549 2.8649C9.51683 2.39341 9.53392 1.83941 10.0508 1.33963C10.5388 0.868137 11.1517 0.617073 11.7865 0.421994C12.7789 0.114347 13.7979 -0.0011698 15.1217 8.91987e-06Z" fill="#1F235A"/>
<path d="M9.66068 3.29514C10.0732 3.53089 10.4628 3.79669 10.8824 3.99353C11.7977 4.42259 12.7814 4.60176 13.7815 4.6825C15.1907 4.79566 16.5851 4.70843 17.9495 4.30708C18.6885 4.0896 19.3822 3.78254 19.9851 3.23621C19.9952 3.29829 20.002 3.36084 20.0057 3.42362C20.0057 3.87979 19.9916 4.33654 20.0105 4.79153C20.0293 5.24652 19.8454 5.5854 19.5136 5.8677C19.0097 6.29617 18.4139 6.54429 17.7892 6.71992C16.215 7.16194 14.6172 7.20909 13.0065 6.96568C12.2403 6.84781 11.4965 6.65568 10.8058 6.29499C10.6051 6.18795 10.4131 6.06517 10.2318 5.92782C9.83572 5.63314 9.62709 5.25064 9.65538 4.73554C9.68131 4.25227 9.66068 3.76604 9.66068 3.29514Z" fill="#1F235A"/>
<path d="M9.66086 6.11938C10.704 7.01698 11.9205 7.33877 13.1823 7.50969C14.7176 7.71714 16.247 7.66057 17.7522 7.25744C18.5537 7.04291 19.3122 6.73586 19.9405 6.16889C19.9488 6.16182 19.967 6.16536 19.9829 6.16418C19.9829 6.79303 20 7.42187 19.9747 8.05013C19.9629 8.34128 19.7478 8.55404 19.5356 8.74145C19.0453 9.17405 18.4559 9.41804 17.8394 9.59956C16.4079 10.0204 14.948 10.0817 13.4729 9.92489C12.6872 9.84061 11.9128 9.69445 11.1938 9.36441C10.7921 9.17078 10.4121 8.9353 10.0599 8.66189C9.76517 8.44088 9.6473 8.1073 9.65732 7.72599C9.67147 7.20558 9.66086 6.68576 9.66086 6.11938Z" fill="#1F235A"/>
<path d="M9.19457 16.9336H12.3942C12.34 17.1299 12.284 17.3108 12.241 17.4947C12.1008 18.1011 12.1367 18.735 12.3447 19.3217C12.386 19.4449 12.4467 19.4914 12.5805 19.4891C13.0366 19.4802 13.4922 19.4843 13.9478 19.4891C14.1658 19.4891 14.2937 19.5893 14.2796 19.7513C14.2625 19.947 14.1258 20 13.9531 20H7.64691C7.47422 20 7.33749 19.947 7.3204 19.7513C7.30625 19.5893 7.43415 19.4902 7.65221 19.4891C8.10779 19.4891 8.56336 19.4832 9.01953 19.4891C9.15272 19.4891 9.21284 19.4449 9.25527 19.3217C9.49572 18.6363 9.50462 17.8909 9.28062 17.2C9.25174 17.1145 9.22817 17.032 9.19457 16.9336Z" fill="#1F235A"/>
</svg>
