<svg width="23" height="20" viewBox="0 0 23 20" fill="none" xmlns="http://www.w3.org/2000/svg">
<path d="M0 9.45623C0.901787 7.68258 2.59264 6.97804 4.35446 6.37181C4.49641 6.32265 4.63836 6.28169 4.74273 6.24483C4.64671 5.30271 4.50476 4.39745 4.47554 3.4922C4.45466 2.90235 4.52981 2.28792 4.68846 1.72265C5.07673 0.325856 6.09541 -0.223032 7.53159 0.108758C8.76737 0.39549 9.78606 1.07955 10.7505 1.84963C10.9884 2.03806 11.2097 2.24286 11.4393 2.43538C12.0739 1.95613 12.6835 1.4564 13.3306 1.01401C14.057 0.518376 14.8503 0.141528 15.7479 0.0268348C16.8167 -0.112435 17.5932 0.28899 18.0524 1.26388C18.5618 2.34937 18.5117 3.50039 18.399 4.64732C18.3447 5.17163 18.232 5.69184 18.1443 6.21615C18.8039 6.47421 19.4844 6.65444 20.0773 6.98623C20.833 7.41224 21.6095 7.87101 22.219 8.46905C23.2127 9.43984 23.1542 10.5499 22.194 11.5739C21.3339 12.4915 20.2234 13.024 19.0544 13.4582C18.7747 13.5606 18.4866 13.6589 18.2111 13.7572C18.3113 14.4986 18.4783 15.2032 18.4783 15.9077C18.4783 16.7146 18.4282 17.5462 18.2153 18.3203C17.8312 19.7049 16.7666 20.2455 15.3429 19.8974C14.0236 19.5738 12.959 18.8119 11.9529 17.9517C11.8151 17.8329 11.6773 17.71 11.5521 17.5953C10.8799 18.0869 10.2578 18.5948 9.58149 19.029C8.77155 19.5533 7.89481 19.9547 6.88865 19.9711C5.84074 19.9875 5.17275 19.5492 4.78031 18.5743C4.34611 17.5011 4.41709 16.387 4.53399 15.2728C4.58408 14.7976 4.70098 14.3266 4.79283 13.8268C2.87236 13.1428 0.947711 12.4587 0.00417494 10.4557C0 10.1239 0 9.79211 0 9.45623ZM11.4686 6.34313C10.8757 6.3759 10.2829 6.3841 9.69421 6.44963C9.51051 6.47012 9.27254 6.5971 9.17652 6.74866C8.5795 7.71126 8.00336 8.69024 7.45227 9.67742C7.36042 9.84536 7.35624 10.1444 7.44809 10.3082C8.00753 11.3118 8.59203 12.3031 9.20157 13.2821C9.29342 13.4295 9.54809 13.5565 9.72761 13.5606C10.8924 13.5852 12.0614 13.5811 13.2304 13.5524C13.4057 13.5483 13.6437 13.4049 13.7439 13.2575C14.1697 12.6185 14.5747 11.9631 14.9546 11.2995C15.6936 10.0092 15.6853 10.0051 14.9672 8.72301C14.8628 8.53459 14.7626 8.34207 14.6415 8.15774C13.293 6.09736 14.0988 6.44554 11.4686 6.34313ZM5.00575 7.07635C4.09562 7.49825 3.1813 7.8751 2.31709 8.33797C1.9163 8.55507 1.56143 8.90324 1.26501 9.25961C0.855863 9.74705 0.868388 10.2222 1.26501 10.7178C2.23359 11.918 3.61132 12.43 5.02245 12.8765C5.40237 11.9385 5.76559 11.0619 6.11211 10.1853C6.15386 10.0788 6.15804 9.92319 6.11629 9.81669C5.77812 8.9524 5.42325 8.0922 5.00575 7.07635ZM10.8047 16.8949C10.2745 16.2559 9.76101 15.6988 9.32264 15.0885C9.01787 14.6666 8.70475 14.4249 8.14948 14.3921C7.34789 14.343 6.55883 14.1873 5.74472 14.0726C5.43577 15.4284 5.19363 16.7515 5.62364 18.0869C5.87832 18.8774 6.40853 19.1683 7.231 18.9921C8.65883 18.689 9.74431 17.8288 10.8047 16.8949ZM10.7505 3.13173C9.82781 2.28383 8.85922 1.54242 7.66519 1.1369C6.38766 0.698607 5.74054 1.09184 5.4984 2.39033C5.27295 3.5987 5.48587 4.76201 5.76142 5.95809C6.77175 5.81882 7.75286 5.68365 8.73398 5.54438C8.80495 5.53209 8.88427 5.46655 8.93437 5.40921C9.52721 4.6637 10.1201 3.9223 10.7505 3.13173ZM17.2258 14.0439C16.1946 14.1873 15.2302 14.3184 14.2616 14.4577C14.1739 14.4699 14.0654 14.5273 14.0111 14.5969C13.4141 15.3547 12.8212 16.1166 12.2159 16.899C13.2095 17.796 14.2282 18.6358 15.5725 18.9716C16.5077 19.2051 17.0296 18.9225 17.3135 18.0131C17.7226 16.6942 17.5306 15.3875 17.2258 14.0439ZM12.1783 3.13993C12.7043 3.78303 13.2137 4.34011 13.6437 4.95453C13.936 5.37234 14.2574 5.58125 14.7751 5.6263C15.5725 5.70004 16.3616 5.85159 17.1715 5.97038C17.4805 4.61865 17.6892 3.31197 17.3051 1.9889C17.0379 1.07136 16.4743 0.772338 15.5266 1.03449C14.199 1.40315 13.1719 2.22648 12.1783 3.13993ZM17.8854 7.18695C17.5097 8.10039 17.1548 8.95649 16.8083 9.82079C16.7749 9.90271 16.7582 10.0215 16.7916 10.0993C17.1632 11.0005 17.5431 11.8975 17.9355 12.8192C19.1964 12.4341 20.3821 11.9631 21.3381 11.066C22.1522 10.3041 22.1481 9.64875 21.3256 8.89915C20.357 8.01847 19.163 7.56379 17.8854 7.18695ZM16.1862 11.0906C15.7103 11.9057 15.2845 12.639 14.8043 13.4664C15.5892 13.3271 16.253 13.2124 16.9753 13.0854C16.6998 12.3809 16.4576 11.7747 16.1862 11.0906ZM5.99521 13.1305C6.70913 13.2452 7.36877 13.3558 8.13696 13.4787C7.65267 12.6594 7.22265 11.9303 6.7467 11.1234C6.47533 11.8361 6.24571 12.4587 5.99521 13.1305ZM11.4686 3.8076C10.9968 4.36878 10.5793 4.87261 10.1201 5.4174C11.0594 5.4174 11.8902 5.4174 12.8254 5.4174C12.3495 4.85622 11.9362 4.36468 11.4686 3.8076ZM12.8421 14.5887C11.8861 14.5887 11.0552 14.5887 10.1201 14.5887C10.6002 15.154 11.026 15.6578 11.4936 16.2067C11.957 15.6537 12.3745 15.1499 12.8421 14.5887ZM6.7467 8.88276C7.22265 8.06762 7.64014 7.35079 8.11191 6.54385C7.36042 6.67492 6.72165 6.78962 6.01191 6.9166C6.26241 7.59247 6.48786 8.1946 6.7467 8.88276ZM16.1821 8.88686C16.4451 8.19051 16.6705 7.59247 16.921 6.92479C16.1946 6.79781 15.5475 6.68312 14.8085 6.55204C15.2845 7.36308 15.7061 8.07991 16.1821 8.88686Z" fill="#1F235A"/>
<path d="M11.4472 11.9633C10.3032 11.9592 9.43067 11.0908 9.43902 9.96023C9.44737 8.84607 10.3533 7.9572 11.4764 7.96949C12.6078 7.98177 13.4929 8.87064 13.4845 9.9889C13.4762 11.1153 12.5953 11.9674 11.4472 11.9633Z" fill="#1F235A"/>
</svg>
