<svg width="21" height="18" viewBox="0 0 21 18" fill="none" xmlns="http://www.w3.org/2000/svg">
<path d="M0.00898615 3.41064H20.9108C20.9142 3.48886 20.9203 3.55702 20.9203 3.62462C20.9203 7.82093 20.9203 12.0172 20.9203 16.2135C20.9203 17.1219 20.3823 17.8035 19.5332 17.9711C19.3958 17.9938 19.2566 18.0032 19.1175 17.999C13.3465 17.999 7.57553 17.999 1.80454 17.999C0.711234 17.999 0.000597467 17.2873 3.88035e-05 16.1929C3.88035e-05 12.004 3.88035e-05 7.81402 3.88035e-05 3.62293C-0.00051986 3.55756 0.00507551 3.48997 0.00898615 3.41064ZM10.9498 7.97603C10.8947 7.89857 10.8356 7.82399 10.7728 7.75256C9.86697 6.84418 8.96027 5.93709 8.05262 5.03131C7.82525 4.80338 7.74368 4.80226 7.51854 5.02684C6.61127 5.93374 5.70439 6.84065 4.79786 7.74754C4.55764 7.98777 4.55874 8.0643 4.80566 8.31123C5.70735 9.21365 6.6098 10.1152 7.51297 11.0157C7.57311 11.0644 7.63828 11.1066 7.70739 11.1414V11.237C7.63904 11.2728 7.57445 11.3155 7.51464 11.3643C6.84703 12.0269 6.17943 12.6906 5.52077 13.3616C5.43026 13.4548 5.3664 13.5705 5.33585 13.6968C5.18054 14.423 5.03977 15.1566 4.89675 15.8873C4.83083 16.2225 4.93919 16.3375 5.26992 16.2722C6.00065 16.1292 6.73138 15.9856 7.45932 15.8253C7.59238 15.7942 7.7147 15.728 7.81353 15.6336C8.48392 14.975 9.14706 14.3063 9.81299 13.6409C9.86494 13.5889 9.92025 13.5387 10.0029 13.4605C10.0494 13.5289 10.0996 13.5947 10.1532 13.6576C11.0538 14.5604 11.9555 15.4625 12.8583 16.3638C13.0968 16.6029 13.1745 16.6035 13.4074 16.3705C14.3139 15.4644 15.2207 14.5577 16.1276 13.6504C16.3572 13.4208 16.356 13.3347 16.122 13.1001L13.4018 10.3794C13.3499 10.3269 13.3007 10.271 13.2292 10.1939C13.3013 10.133 13.3633 10.0878 13.4169 10.0342C14.1275 9.32652 14.837 8.61664 15.5454 7.90453C15.9868 7.46039 16.16 6.92855 15.9991 6.31681C15.6935 5.13747 14.2432 4.69669 13.3538 5.53133C12.6571 6.18385 11.9962 6.87213 11.3225 7.55035C11.2013 7.67381 11.0934 7.81122 10.9498 7.97603Z" fill="#1F235A"/>
<path d="M0.032267 2.90227C0.032267 2.37768 -0.0263796 1.86204 0.045688 1.36594C0.163007 0.565379 0.854642 0.0217879 1.66079 0C1.74459 0 1.82838 0 1.91162 0C7.64723 0 13.3828 0 19.1185 0C19.9754 0 20.6185 0.449744 20.8503 1.20729C20.8821 1.29223 20.902 1.38115 20.9095 1.47154C20.9151 1.94473 20.9123 2.41734 20.9123 2.90393L0.032267 2.90227ZM15.5832 1.21343C14.3927 1.21343 13.2017 1.21343 12.0106 1.21343C11.8391 1.21343 11.6994 1.24863 11.6793 1.44584C11.6631 1.60283 11.791 1.69333 12.0145 1.69836C12.0352 1.69836 12.0564 1.69836 12.0771 1.69836H19.0553C19.1319 1.69836 19.2257 1.71567 19.2788 1.6788C19.3542 1.62684 19.4464 1.53075 19.4464 1.45534C19.4464 1.37992 19.3537 1.28774 19.2788 1.23187C19.2324 1.19779 19.1442 1.2179 19.0749 1.2179L15.5832 1.21343ZM1.93565 2.1816C2.12875 2.18325 2.31467 2.10858 2.45299 1.97382C2.5913 1.83906 2.67081 1.65513 2.67419 1.46205C2.67338 1.26896 2.59738 1.08379 2.46232 0.9458C2.32725 0.807814 2.14376 0.727873 1.95074 0.722935C1.75769 0.722477 1.57223 0.798176 1.43468 0.933634C1.29713 1.06909 1.21857 1.25335 1.21607 1.44639C1.21489 1.54195 1.2326 1.63682 1.26815 1.72553C1.3037 1.81424 1.3564 1.89504 1.42325 1.96334C1.4901 2.03164 1.56978 2.0861 1.65771 2.12355C1.74564 2.161 1.84009 2.18072 1.93565 2.1816ZM5.8463 2.1816C6.03928 2.17778 6.22298 2.09804 6.35758 1.95969C6.49217 1.82133 6.56678 1.6355 6.56528 1.44249C6.56377 1.34667 6.54343 1.25208 6.50537 1.16414C6.46732 1.07619 6.41232 0.996612 6.3435 0.929924C6.27469 0.863236 6.19339 0.81075 6.1043 0.775473C6.0152 0.740196 5.92004 0.722822 5.82423 0.724326C5.72841 0.72583 5.63382 0.746174 5.54588 0.78423C5.45793 0.822286 5.37835 0.877313 5.31167 0.946127C5.24498 1.01494 5.19249 1.09621 5.15721 1.18531C5.12194 1.2744 5.10456 1.36956 5.10607 1.46537C5.10959 1.65874 5.18968 1.84282 5.32877 1.9772C5.46786 2.11158 5.65458 2.18528 5.84796 2.18214L5.8463 2.1816ZM4.61219 1.46649C4.61437 1.32304 4.57403 1.18219 4.49623 1.06165C4.41843 0.941115 4.30667 0.846315 4.17505 0.789222C4.04344 0.732128 3.89785 0.715281 3.75668 0.740829C3.61551 0.766378 3.48508 0.833161 3.38182 0.932761C3.27856 1.03236 3.20712 1.16032 3.1765 1.30048C3.14588 1.44063 3.15744 1.58673 3.20975 1.72032C3.26206 1.85391 3.35277 1.969 3.47042 2.0511C3.58808 2.13319 3.72741 2.1786 3.87084 2.1816C3.96683 2.18458 4.06246 2.16833 4.15208 2.13383C4.24171 2.09934 4.32354 2.04729 4.39276 1.98072C4.46198 1.91415 4.51721 1.83442 4.55518 1.74621C4.59315 1.658 4.61311 1.5631 4.61388 1.46706L4.61219 1.46649Z" fill="#1F235A"/>
<path d="M5.84297 1.69263C5.98878 1.67587 6.07649 1.59823 6.07203 1.44795C6.07414 1.41618 6.06921 1.38431 6.05762 1.35465C6.04603 1.325 6.02804 1.29828 6.00495 1.27636C5.98185 1.25444 5.95423 1.23786 5.92401 1.22784C5.89379 1.21781 5.86174 1.21455 5.83012 1.21831C5.6804 1.22167 5.59937 1.31162 5.60161 1.46022C5.60384 1.60883 5.6966 1.68314 5.84297 1.69263Z" fill="#1F235A"/>
<path d="M12.9027 6.72607L14.4435 8.27301L7.54233 15.1742L6.00488 13.625L12.9027 6.72607Z" fill="#1F235A"/>
<path d="M13.8456 11.5248L14.5294 12.2091C14.3914 12.3209 14.2501 12.4326 14.1154 12.5477C13.9897 12.6561 13.9406 12.7868 14.0596 12.9293C14.1629 13.0533 14.3054 13.0382 14.4551 12.889C14.5786 12.7661 14.6942 12.636 14.8009 12.5226C15.1022 12.8235 15.3875 13.1082 15.6568 13.3768L13.8556 15.1784L11.0986 12.4209L12.907 10.613L13.4953 11.2315C13.3914 11.3315 13.2573 11.4583 13.1249 11.5868C13.0031 11.7058 12.964 11.8399 13.0998 11.9678C13.2266 12.0868 13.3567 12.0466 13.4674 11.932C13.5931 11.8019 13.7143 11.6672 13.8456 11.5248Z" fill="#1F235A"/>
<path d="M8.98012 6.66165L9.62706 7.3097C9.49745 7.43652 9.36558 7.56611 9.23318 7.6946C9.1181 7.80633 9.07454 7.93484 9.19521 8.06054C9.31588 8.18624 9.45833 8.1583 9.57733 8.03539C9.69632 7.91249 9.82593 7.77451 9.95331 7.64043L10.5449 8.26892L8.75218 10.0472L6.01025 7.30523L7.78906 5.52588L8.62705 6.36387C8.51923 6.46667 8.38849 6.58734 8.25999 6.71528C8.1315 6.84321 8.09855 6.97002 8.23263 7.09739C8.3561 7.21471 8.48906 7.17841 8.60024 7.06332C8.72594 6.93595 8.84716 6.80243 8.98012 6.66165Z" fill="#1F235A"/>
<path d="M14.8639 7.90724C14.3253 7.36757 13.8024 6.8458 13.2661 6.30725C13.584 5.96144 13.8935 5.58097 14.4522 5.60164C14.9019 5.61951 15.2382 5.82512 15.4393 6.22345C15.6455 6.63183 15.6069 7.03686 15.3365 7.40166C15.1968 7.58882 15.0169 7.74579 14.8639 7.90724Z" fill="#1F235A"/>
<path d="M10.3687 13.1098L10.6798 12.7808L13.4804 15.5825L13.1452 15.8842L10.3687 13.1098Z" fill="#1F235A"/>
<path d="M8.37084 10.4789L8.03005 10.8085L5.25684 8.03417C5.36857 7.92243 5.48645 7.80177 5.59203 7.69507L8.37084 10.4789Z" fill="#1F235A"/>
<path d="M5.73298 14.1665C6.15533 14.59 6.57099 15.0045 6.99502 15.4302L5.41846 15.7458L5.73298 14.1665Z" fill="#1F235A"/>
<path d="M5.84297 1.69263C5.6966 1.68314 5.60384 1.61218 5.60161 1.46022C5.59937 1.30826 5.6804 1.22167 5.83012 1.21831C5.86174 1.21455 5.89379 1.21781 5.92401 1.22784C5.95423 1.23786 5.98185 1.25444 6.00495 1.27636C6.02804 1.29828 6.04603 1.325 6.05762 1.35465C6.06921 1.38431 6.07414 1.41618 6.07203 1.44795C6.07482 1.59823 5.98878 1.67587 5.84297 1.69263Z" fill="#1F235A"/>
<path d="M3.86787 1.69263C3.7215 1.68314 3.62874 1.61218 3.62651 1.46022C3.62427 1.30826 3.70583 1.22167 3.85499 1.21831C3.88661 1.21455 3.9187 1.21781 3.94891 1.22784C3.97913 1.23786 4.00676 1.25444 4.02985 1.27636C4.05294 1.29828 4.07093 1.325 4.08252 1.35465C4.09411 1.38431 4.09901 1.41618 4.0969 1.44795C4.10193 1.59823 4.01368 1.67587 3.86787 1.69263Z" fill="#1F235A"/>
<path d="M1.91673 1.69263C1.7698 1.68314 1.67708 1.61218 1.67485 1.46022C1.67261 1.30826 1.75417 1.22167 1.90333 1.21831C1.93495 1.21455 1.96701 1.21781 1.99723 1.22784C2.02745 1.23786 2.05507 1.25444 2.07816 1.27636C2.10126 1.29828 2.11925 1.325 2.13084 1.35465C2.14243 1.38431 2.14735 1.41618 2.14524 1.44795C2.15027 1.59823 2.06254 1.67587 1.91673 1.69263Z" fill="#1F235A"/>
</svg>
