<svg width="24" height="20" viewBox="0 0 24 20" fill="none" xmlns="http://www.w3.org/2000/svg">
<path d="M23.9498 7.38086V17.6719C23.9338 17.6976 23.921 17.725 23.9116 17.7538C23.6617 19.1048 22.6068 19.9966 21.237 19.9978C15.0629 20.0008 8.88895 20.0008 2.71523 19.9978C1.15982 19.9978 0.00124983 18.8249 0 17.2688C0 14.0647 0 10.8608 0 7.65707V7.39023H23.6217C23.7317 7.38898 23.841 7.38398 23.9498 7.38086ZM15.9634 13.0757C16.0359 13.0001 16.0884 12.9432 16.1421 12.8882L17.4144 11.6153C17.7819 11.2478 17.8319 10.881 17.5538 10.5979C17.2757 10.3148 16.8964 10.3598 16.5358 10.7191C16.1752 11.0785 15.8184 11.4346 15.4622 11.794C15.3372 11.919 15.2191 12.0508 15.0872 12.1933C14.5461 11.6496 14.0386 11.1341 13.525 10.6254C13.2438 10.3479 12.8595 10.3411 12.6076 10.5948C12.3558 10.8485 12.3633 11.2278 12.6407 11.5121C13.0219 11.9021 13.41 12.2852 13.7968 12.6701C13.9268 12.7995 14.0611 12.9245 14.2043 13.0626C13.6799 13.5837 13.18 14.0749 12.6895 14.5755C12.5845 14.6778 12.5035 14.8023 12.4526 14.9398C12.413 15.0718 12.4199 15.2135 12.4722 15.341C12.5245 15.4685 12.6191 15.5742 12.7401 15.6403C12.8599 15.7081 12.9987 15.7344 13.1349 15.7152C13.2712 15.696 13.3973 15.6323 13.4937 15.5341C13.9674 15.0716 14.4311 14.5998 14.9017 14.1324C14.9592 14.0749 15.0198 14.0199 15.0973 13.9449C15.2279 14.0849 15.336 14.2074 15.4516 14.3199C15.8578 14.7286 16.2608 15.1416 16.6777 15.5391C16.7362 15.5968 16.8056 15.6423 16.8818 15.673C16.9581 15.7036 17.0397 15.7188 17.1219 15.7176C17.2041 15.7163 17.2852 15.6988 17.3605 15.6659C17.4359 15.633 17.5039 15.5854 17.5607 15.526C17.7931 15.286 17.795 14.9254 17.5607 14.6598C17.4938 14.5842 17.4194 14.5148 17.3475 14.4436L15.9634 13.0757ZM6.21474 12.2901H6.21788C6.21788 12.672 6.21038 13.0538 6.21788 13.4356C6.24663 14.6717 7.22961 15.6547 8.51068 15.7347C9.66864 15.8065 10.8141 14.9223 10.9316 13.7487C11.0228 12.8307 10.9822 11.8977 10.9753 10.9716C10.9753 10.6554 10.6941 10.4285 10.3854 10.4179C10.0105 10.4048 9.73364 10.676 9.73051 11.0816C9.72489 11.8371 9.73049 12.5933 9.72612 13.3488C9.73064 13.5533 9.67678 13.7548 9.57087 13.9298C9.46495 14.1048 9.31136 14.2459 9.12809 14.3367C8.35819 14.7536 7.47833 14.1943 7.47146 13.2844C7.46583 12.552 7.47519 11.8196 7.46706 11.0872C7.46269 10.671 7.1971 10.4054 6.82152 10.4135C6.45783 10.4217 6.21786 10.6898 6.21474 11.0978C6.21474 11.4953 6.21663 11.8927 6.21663 12.2901H6.21474Z" fill="#1F235A"/>
<path d="M23.9498 6.11787C23.8567 6.12287 23.7623 6.13288 23.6711 6.13288H0V5.88978C0 4.82743 0 3.76946 0 2.70898C0.00374948 1.18295 1.16484 0.00437439 2.69088 0.00312456C8.88085 -0.00104152 15.0708 -0.00104152 21.2608 0.00312456C22.6118 0.00312456 23.6604 0.904227 23.9116 2.24591C23.9209 2.27485 23.9338 2.30257 23.9498 2.32842V6.11787ZM17.0757 3.07392C16.064 3.07392 15.0516 3.07392 14.0393 3.07392C13.6218 3.07392 13.3519 3.35889 13.3769 3.74821C13.4006 4.10503 13.6812 4.32938 14.1168 4.33C15.7053 4.33 17.2938 4.33 18.8823 4.33C19.2792 4.33 19.6766 4.335 20.0734 4.33C20.394 4.325 20.6246 4.16816 20.7152 3.91319C20.8652 3.48888 20.5646 3.07831 20.0903 3.07581C19.0836 3.07082 18.0793 3.07392 17.0745 3.07392H17.0757ZM4.445 3.70323C4.44616 3.53897 4.38216 3.38095 4.26701 3.26381C4.15186 3.14667 3.99495 3.07997 3.8307 3.07832C3.70668 3.07621 3.58484 3.11106 3.48068 3.17843C3.37653 3.2458 3.29478 3.34264 3.24585 3.45662C3.19692 3.57061 3.18301 3.69657 3.20591 3.81848C3.22881 3.94039 3.28748 4.05276 3.37444 4.14122C3.46139 4.22968 3.57271 4.29025 3.69422 4.31524C3.81572 4.34022 3.94191 4.32849 4.05671 4.28152C4.17152 4.23455 4.26975 4.15446 4.3389 4.05148C4.40805 3.94849 4.44498 3.82727 4.445 3.70323ZM6.53345 3.07517C6.40938 3.07519 6.28814 3.11215 6.18514 3.18133C6.08214 3.25051 6.00205 3.34876 5.9551 3.46361C5.90815 3.57845 5.89647 3.70468 5.9215 3.8262C5.94654 3.94772 6.00718 4.05905 6.0957 4.14598C6.18423 4.23291 6.29661 4.29152 6.41857 4.31435C6.54052 4.33718 6.66651 4.32319 6.78048 4.27416C6.89446 4.22514 6.99126 4.14326 7.05855 4.03903C7.12585 3.93479 7.16059 3.81291 7.15836 3.68886C7.15779 3.60738 7.14112 3.52681 7.1093 3.4518C7.07747 3.37679 7.03113 3.30879 6.97293 3.25175C6.91474 3.19472 6.84584 3.14978 6.7702 3.11948C6.69456 3.08917 6.61367 3.0741 6.5322 3.07517H6.53345ZM9.87612 3.69011C9.87613 3.60854 9.8599 3.52776 9.82837 3.45253C9.79683 3.3773 9.75063 3.30912 9.69246 3.25194C9.63429 3.19475 9.56531 3.14972 9.48955 3.11948C9.41379 3.08924 9.33277 3.0744 9.25121 3.07581C9.08612 3.07581 8.92771 3.14114 8.81063 3.25752C8.69354 3.37391 8.62729 3.53189 8.6263 3.69697C8.6267 3.78056 8.64363 3.86325 8.67612 3.94026C8.70862 4.01727 8.75603 4.08706 8.81563 4.14567C8.87523 4.20428 8.94582 4.25053 9.02337 4.28173C9.10091 4.31294 9.18386 4.32849 9.26744 4.3275C9.43231 4.32292 9.58869 4.25336 9.70247 4.13396C9.81625 4.01455 9.87823 3.85501 9.87487 3.69011H9.87612Z" fill="#1F235A"/>
</svg>
