<svg width="21" height="22" viewBox="0 0 21 22" fill="none" xmlns="http://www.w3.org/2000/svg">
<mask id="path-1-outside-1_297_1707" maskUnits="userSpaceOnUse" x="0" y="0" width="21" height="22" fill="black">
<rect fill="white" width="21" height="22"/>
<path d="M9.1518 11.5239C9.1768 11.5108 9.19416 11.5023 9.21026 11.4926C10.2147 10.9148 11.2189 10.3373 12.2228 9.76012C12.2462 9.7497 12.2658 9.73222 12.2788 9.71011C12.2918 9.68801 12.2975 9.66239 12.2952 9.63686C12.293 8.30652 12.2923 6.97604 12.2931 5.64542C12.2931 5.55689 12.3041 5.47217 12.3664 5.40524C12.3979 5.37191 12.4342 5.34337 12.474 5.32053C13.6194 4.65974 14.765 3.99979 15.9109 3.34069C15.9986 3.29029 16.0876 3.242 16.1731 3.18863C16.2296 3.15098 16.2959 3.13089 16.3638 3.13089C16.4316 3.13089 16.4979 3.15098 16.5544 3.18863C17.3682 3.65965 18.1826 4.12898 18.9976 4.59662C19.4079 4.83298 19.8182 5.06906 20.2285 5.30486C20.3107 5.3523 20.387 5.40525 20.4141 5.5014C20.4269 5.54733 20.4335 5.59477 20.4336 5.64245C20.4336 6.76411 20.4336 7.88576 20.4336 9.00741C20.4336 9.29545 20.4336 9.58391 20.4336 9.87195C20.437 9.93587 20.4217 9.9994 20.3897 10.0548C20.3576 10.1102 20.3102 10.1552 20.2531 10.1841C19.0792 10.8588 17.9056 11.5338 16.7323 12.2093C16.7126 12.2181 16.6962 12.2329 16.6854 12.2515C16.6745 12.2701 16.6697 12.2916 16.6717 12.3131C16.6734 13.6437 16.6742 14.9742 16.6742 16.3045C16.6788 16.3772 16.6618 16.4497 16.6255 16.5129C16.5892 16.576 16.5352 16.6272 16.4701 16.6599C13.9879 18.0865 11.5064 19.5149 9.02558 20.9449C8.96984 20.9809 8.90491 21 8.83856 21C8.77222 21 8.70729 20.9809 8.65155 20.9449C6.94422 19.9602 5.23577 18.9763 3.52618 17.9933C2.7465 17.5438 1.96625 17.0949 1.18545 16.6468C1.12763 16.6174 1.07946 16.572 1.04664 16.5161C1.01383 16.4602 0.997764 16.396 1.00034 16.3312C1.00034 12.0547 1.00034 7.77845 1.00034 3.5025C0.997484 3.43937 1.01266 3.37672 1.04408 3.32189C1.07551 3.26706 1.1219 3.22231 1.17782 3.19286C2.41864 2.47926 3.65918 1.76496 4.89944 1.04995C4.95385 1.01625 5.01682 0.998925 5.08082 1.00005C5.14482 1.00118 5.20713 1.02071 5.26033 1.0563C6.27242 1.64028 7.28478 2.22356 8.29743 2.80613C8.51685 2.9332 8.73542 3.06028 8.95611 3.18439C9.01687 3.21522 9.06734 3.26309 9.10134 3.32214C9.13534 3.38119 9.15141 3.44887 9.14757 3.5169C9.14757 6.16092 9.14757 8.80508 9.14757 11.4494L9.1518 11.5239ZM8.52998 20.1511V20.0909C8.52998 18.9244 8.52998 17.7581 8.52998 16.5921C8.53143 16.5753 8.52754 16.5585 8.51887 16.5441C8.5102 16.5296 8.49719 16.5183 8.48169 16.5116C7.30328 15.8458 6.12529 15.1789 4.94773 14.511C4.90916 14.4889 4.87406 14.4612 4.84353 14.4289C4.77745 14.3594 4.76813 14.2713 4.76813 14.1794C4.76813 11.6977 4.76813 9.2161 4.76813 6.73445C4.76813 6.44642 4.76813 6.15796 4.76813 5.86949C4.76991 5.85407 4.76677 5.83847 4.75916 5.82493C4.75156 5.81139 4.73987 5.8006 4.72577 5.7941C3.7069 5.2087 2.68861 4.62274 1.67087 4.03622C1.65774 4.02859 1.64334 4.02309 1.62343 4.01335V4.06756C1.62343 8.08767 1.62343 12.1082 1.62343 16.1291C1.62207 16.1452 1.62575 16.1612 1.63395 16.175C1.64215 16.1888 1.65447 16.1998 1.66918 16.2062C2.03261 16.4138 2.39563 16.6223 2.75822 16.8319L8.47153 20.1219C8.48974 20.1307 8.50584 20.1384 8.52998 20.1511ZM16.055 12.6007C16.0317 12.613 16.0156 12.6202 16.0007 12.6291L14.6385 13.4068C12.8236 14.442 11.0098 15.4768 9.19713 16.5112C9.18181 16.5184 9.16912 16.5301 9.16084 16.5449C9.15256 16.5596 9.1491 16.5766 9.15096 16.5934C9.15096 17.7594 9.15096 18.9255 9.15096 20.0918V20.1515C9.17468 20.1388 9.19078 20.1312 9.20603 20.1227C11.4688 18.8198 13.7316 17.5172 15.9944 16.2151C16.0141 16.2064 16.0305 16.1917 16.0414 16.1732C16.0524 16.1547 16.0572 16.1332 16.0554 16.1118C16.0537 14.9656 16.0537 13.8193 16.0554 12.6731L16.055 12.6007ZM5.70891 14.2277C5.72839 14.2395 5.74237 14.2484 5.75635 14.2565C6.76589 14.828 7.77515 15.3997 8.78413 15.9716C8.79952 15.9831 8.81809 15.9897 8.83733 15.9904C8.85657 15.9911 8.87556 15.9858 8.89172 15.9754C11.1579 14.6792 13.4248 13.3842 15.6924 12.0903C15.7064 12.0822 15.7195 12.0733 15.7373 12.0623C15.7144 12.0479 15.6983 12.0373 15.6814 12.0271C14.6718 11.446 13.6626 10.8645 12.6536 10.2828C12.6386 10.2721 12.6206 10.2663 12.6021 10.2663C12.5837 10.2663 12.5657 10.2721 12.5506 10.2828C12.0988 10.5443 11.647 10.8047 11.1952 11.0639L5.7572 14.1951C5.74322 14.2056 5.72881 14.2162 5.70891 14.2277ZM8.53041 4.0125C8.50838 4.02351 8.49398 4.03029 8.48042 4.03791C7.46382 4.62246 6.4482 5.20687 5.43358 5.79113C5.41825 5.79823 5.40551 5.8099 5.39709 5.82454C5.38867 5.83918 5.38499 5.85607 5.38656 5.87288C5.38656 8.45929 5.38656 11.0454 5.38656 13.6313C5.38656 13.6486 5.38868 13.6656 5.38995 13.6906C5.41325 13.6774 5.42892 13.6694 5.44417 13.6605C6.4571 13.0776 7.46975 12.4951 8.48212 11.9128C8.49791 11.9054 8.51103 11.8932 8.51967 11.8781C8.52832 11.8629 8.53207 11.8454 8.53041 11.8281C8.53041 9.24391 8.53041 6.66004 8.53041 4.07646V4.0125ZM13.2292 5.60094C13.2618 5.62043 13.2881 5.63652 13.314 5.6522C14.3173 6.22997 15.3209 6.80802 16.3248 7.38635C16.3365 7.39471 16.3506 7.39919 16.365 7.39919C16.3795 7.39919 16.3935 7.39471 16.4053 7.38635C17.4219 6.80011 18.4385 6.21443 19.4551 5.62932C19.4699 5.62085 19.4835 5.61068 19.5017 5.5984C19.4818 5.58612 19.4699 5.57764 19.4593 5.57044C18.4427 4.98505 17.4261 4.39951 16.4095 3.81384C16.3976 3.80556 16.3835 3.80113 16.3691 3.80113C16.3546 3.80113 16.3405 3.80556 16.3286 3.81384C15.347 4.38031 14.365 4.94608 13.3826 5.51114L13.2292 5.60094ZM8.21653 3.472C8.20001 3.46141 8.18815 3.45252 8.17417 3.44532C7.15757 2.85908 6.13955 2.27269 5.12013 1.68617C5.10835 1.67788 5.09429 1.67342 5.07988 1.67342C5.06548 1.67342 5.05142 1.67788 5.03965 1.68617C4.10183 2.22695 3.16387 2.76716 2.22577 3.30681L1.94154 3.47116C1.96188 3.48344 1.97543 3.49234 1.98941 3.50038C3.00601 4.08634 4.02262 4.67216 5.03922 5.25784C5.05104 5.26623 5.06518 5.27073 5.07967 5.27073C5.09417 5.27073 5.10831 5.26623 5.12013 5.25784C6.13673 4.67131 7.15333 4.0855 8.16994 3.50038C8.18222 3.49276 8.19577 3.48344 8.21441 3.472H8.21653ZM16.6781 11.5231C16.7014 11.5112 16.7158 11.5049 16.7297 11.4968C17.7421 10.914 18.7546 10.3314 19.7673 9.74911C19.7842 9.74156 19.7984 9.72895 19.8078 9.71303C19.8173 9.6971 19.8216 9.67863 19.8202 9.66016C19.8202 8.50716 19.8202 7.3543 19.8202 6.20158C19.8202 6.18422 19.8202 6.16643 19.8168 6.14228C19.7956 6.1533 19.7812 6.1605 19.7677 6.16855C18.7553 6.7514 17.7427 7.33411 16.7297 7.91668C16.7129 7.92415 16.6989 7.93672 16.6896 7.95261C16.6803 7.96849 16.6763 7.9869 16.6781 8.00521C16.6798 9.15651 16.6798 10.3077 16.6781 11.4587V11.5231ZM12.9166 6.14355C12.9166 6.1677 12.9137 6.18083 12.9137 6.19396C12.9137 7.35345 12.9137 8.5128 12.9137 9.67202C12.9125 9.6867 12.9159 9.70138 12.9235 9.71399C12.9311 9.72661 12.9425 9.73652 12.956 9.74233L16.0058 11.4977C16.0207 11.5066 16.0368 11.5138 16.0592 11.5252V11.4676C16.0592 10.3118 16.0592 9.15581 16.0592 7.9997C16.0606 7.98363 16.0569 7.96752 16.0487 7.95362C16.0405 7.93973 16.0282 7.92874 16.0135 7.92219C14.9969 7.33849 13.9817 6.75436 12.9679 6.16982C12.9505 6.15965 12.9361 6.15287 12.9145 6.14144L12.9166 6.14355Z"/>
</mask>
<path d="M9.1518 11.5239C9.1768 11.5108 9.19416 11.5023 9.21026 11.4926C10.2147 10.9148 11.2189 10.3373 12.2228 9.76012C12.2462 9.7497 12.2658 9.73222 12.2788 9.71011C12.2918 9.68801 12.2975 9.66239 12.2952 9.63686C12.293 8.30652 12.2923 6.97604 12.2931 5.64542C12.2931 5.55689 12.3041 5.47217 12.3664 5.40524C12.3979 5.37191 12.4342 5.34337 12.474 5.32053C13.6194 4.65974 14.765 3.99979 15.9109 3.34069C15.9986 3.29029 16.0876 3.242 16.1731 3.18863C16.2296 3.15098 16.2959 3.13089 16.3638 3.13089C16.4316 3.13089 16.4979 3.15098 16.5544 3.18863C17.3682 3.65965 18.1826 4.12898 18.9976 4.59662C19.4079 4.83298 19.8182 5.06906 20.2285 5.30486C20.3107 5.3523 20.387 5.40525 20.4141 5.5014C20.4269 5.54733 20.4335 5.59477 20.4336 5.64245C20.4336 6.76411 20.4336 7.88576 20.4336 9.00741C20.4336 9.29545 20.4336 9.58391 20.4336 9.87195C20.437 9.93587 20.4217 9.9994 20.3897 10.0548C20.3576 10.1102 20.3102 10.1552 20.2531 10.1841C19.0792 10.8588 17.9056 11.5338 16.7323 12.2093C16.7126 12.2181 16.6962 12.2329 16.6854 12.2515C16.6745 12.2701 16.6697 12.2916 16.6717 12.3131C16.6734 13.6437 16.6742 14.9742 16.6742 16.3045C16.6788 16.3772 16.6618 16.4497 16.6255 16.5129C16.5892 16.576 16.5352 16.6272 16.4701 16.6599C13.9879 18.0865 11.5064 19.5149 9.02558 20.9449C8.96984 20.9809 8.90491 21 8.83856 21C8.77222 21 8.70729 20.9809 8.65155 20.9449C6.94422 19.9602 5.23577 18.9763 3.52618 17.9933C2.7465 17.5438 1.96625 17.0949 1.18545 16.6468C1.12763 16.6174 1.07946 16.572 1.04664 16.5161C1.01383 16.4602 0.997764 16.396 1.00034 16.3312C1.00034 12.0547 1.00034 7.77845 1.00034 3.5025C0.997484 3.43937 1.01266 3.37672 1.04408 3.32189C1.07551 3.26706 1.1219 3.22231 1.17782 3.19286C2.41864 2.47926 3.65918 1.76496 4.89944 1.04995C4.95385 1.01625 5.01682 0.998925 5.08082 1.00005C5.14482 1.00118 5.20713 1.02071 5.26033 1.0563C6.27242 1.64028 7.28478 2.22356 8.29743 2.80613C8.51685 2.9332 8.73542 3.06028 8.95611 3.18439C9.01687 3.21522 9.06734 3.26309 9.10134 3.32214C9.13534 3.38119 9.15141 3.44887 9.14757 3.5169C9.14757 6.16092 9.14757 8.80508 9.14757 11.4494L9.1518 11.5239ZM8.52998 20.1511V20.0909C8.52998 18.9244 8.52998 17.7581 8.52998 16.5921C8.53143 16.5753 8.52754 16.5585 8.51887 16.5441C8.5102 16.5296 8.49719 16.5183 8.48169 16.5116C7.30328 15.8458 6.12529 15.1789 4.94773 14.511C4.90916 14.4889 4.87406 14.4612 4.84353 14.4289C4.77745 14.3594 4.76813 14.2713 4.76813 14.1794C4.76813 11.6977 4.76813 9.2161 4.76813 6.73445C4.76813 6.44642 4.76813 6.15796 4.76813 5.86949C4.76991 5.85407 4.76677 5.83847 4.75916 5.82493C4.75156 5.81139 4.73987 5.8006 4.72577 5.7941C3.7069 5.2087 2.68861 4.62274 1.67087 4.03622C1.65774 4.02859 1.64334 4.02309 1.62343 4.01335V4.06756C1.62343 8.08767 1.62343 12.1082 1.62343 16.1291C1.62207 16.1452 1.62575 16.1612 1.63395 16.175C1.64215 16.1888 1.65447 16.1998 1.66918 16.2062C2.03261 16.4138 2.39563 16.6223 2.75822 16.8319L8.47153 20.1219C8.48974 20.1307 8.50584 20.1384 8.52998 20.1511ZM16.055 12.6007C16.0317 12.613 16.0156 12.6202 16.0007 12.6291L14.6385 13.4068C12.8236 14.442 11.0098 15.4768 9.19713 16.5112C9.18181 16.5184 9.16912 16.5301 9.16084 16.5449C9.15256 16.5596 9.1491 16.5766 9.15096 16.5934C9.15096 17.7594 9.15096 18.9255 9.15096 20.0918V20.1515C9.17468 20.1388 9.19078 20.1312 9.20603 20.1227C11.4688 18.8198 13.7316 17.5172 15.9944 16.2151C16.0141 16.2064 16.0305 16.1917 16.0414 16.1732C16.0524 16.1547 16.0572 16.1332 16.0554 16.1118C16.0537 14.9656 16.0537 13.8193 16.0554 12.6731L16.055 12.6007ZM5.70891 14.2277C5.72839 14.2395 5.74237 14.2484 5.75635 14.2565C6.76589 14.828 7.77515 15.3997 8.78413 15.9716C8.79952 15.9831 8.81809 15.9897 8.83733 15.9904C8.85657 15.9911 8.87556 15.9858 8.89172 15.9754C11.1579 14.6792 13.4248 13.3842 15.6924 12.0903C15.7064 12.0822 15.7195 12.0733 15.7373 12.0623C15.7144 12.0479 15.6983 12.0373 15.6814 12.0271C14.6718 11.446 13.6626 10.8645 12.6536 10.2828C12.6386 10.2721 12.6206 10.2663 12.6021 10.2663C12.5837 10.2663 12.5657 10.2721 12.5506 10.2828C12.0988 10.5443 11.647 10.8047 11.1952 11.0639L5.7572 14.1951C5.74322 14.2056 5.72881 14.2162 5.70891 14.2277ZM8.53041 4.0125C8.50838 4.02351 8.49398 4.03029 8.48042 4.03791C7.46382 4.62246 6.4482 5.20687 5.43358 5.79113C5.41825 5.79823 5.40551 5.8099 5.39709 5.82454C5.38867 5.83918 5.38499 5.85607 5.38656 5.87288C5.38656 8.45929 5.38656 11.0454 5.38656 13.6313C5.38656 13.6486 5.38868 13.6656 5.38995 13.6906C5.41325 13.6774 5.42892 13.6694 5.44417 13.6605C6.4571 13.0776 7.46975 12.4951 8.48212 11.9128C8.49791 11.9054 8.51103 11.8932 8.51967 11.8781C8.52832 11.8629 8.53207 11.8454 8.53041 11.8281C8.53041 9.24391 8.53041 6.66004 8.53041 4.07646V4.0125ZM13.2292 5.60094C13.2618 5.62043 13.2881 5.63652 13.314 5.6522C14.3173 6.22997 15.3209 6.80802 16.3248 7.38635C16.3365 7.39471 16.3506 7.39919 16.365 7.39919C16.3795 7.39919 16.3935 7.39471 16.4053 7.38635C17.4219 6.80011 18.4385 6.21443 19.4551 5.62932C19.4699 5.62085 19.4835 5.61068 19.5017 5.5984C19.4818 5.58612 19.4699 5.57764 19.4593 5.57044C18.4427 4.98505 17.4261 4.39951 16.4095 3.81384C16.3976 3.80556 16.3835 3.80113 16.3691 3.80113C16.3546 3.80113 16.3405 3.80556 16.3286 3.81384C15.347 4.38031 14.365 4.94608 13.3826 5.51114L13.2292 5.60094ZM8.21653 3.472C8.20001 3.46141 8.18815 3.45252 8.17417 3.44532C7.15757 2.85908 6.13955 2.27269 5.12013 1.68617C5.10835 1.67788 5.09429 1.67342 5.07988 1.67342C5.06548 1.67342 5.05142 1.67788 5.03965 1.68617C4.10183 2.22695 3.16387 2.76716 2.22577 3.30681L1.94154 3.47116C1.96188 3.48344 1.97543 3.49234 1.98941 3.50038C3.00601 4.08634 4.02262 4.67216 5.03922 5.25784C5.05104 5.26623 5.06518 5.27073 5.07967 5.27073C5.09417 5.27073 5.10831 5.26623 5.12013 5.25784C6.13673 4.67131 7.15333 4.0855 8.16994 3.50038C8.18222 3.49276 8.19577 3.48344 8.21441 3.472H8.21653ZM16.6781 11.5231C16.7014 11.5112 16.7158 11.5049 16.7297 11.4968C17.7421 10.914 18.7546 10.3314 19.7673 9.74911C19.7842 9.74156 19.7984 9.72895 19.8078 9.71303C19.8173 9.6971 19.8216 9.67863 19.8202 9.66016C19.8202 8.50716 19.8202 7.3543 19.8202 6.20158C19.8202 6.18422 19.8202 6.16643 19.8168 6.14228C19.7956 6.1533 19.7812 6.1605 19.7677 6.16855C18.7553 6.7514 17.7427 7.33411 16.7297 7.91668C16.7129 7.92415 16.6989 7.93672 16.6896 7.95261C16.6803 7.96849 16.6763 7.9869 16.6781 8.00521C16.6798 9.15651 16.6798 10.3077 16.6781 11.4587V11.5231ZM12.9166 6.14355C12.9166 6.1677 12.9137 6.18083 12.9137 6.19396C12.9137 7.35345 12.9137 8.5128 12.9137 9.67202C12.9125 9.6867 12.9159 9.70138 12.9235 9.71399C12.9311 9.72661 12.9425 9.73652 12.956 9.74233L16.0058 11.4977C16.0207 11.5066 16.0368 11.5138 16.0592 11.5252V11.4676C16.0592 10.3118 16.0592 9.15581 16.0592 7.9997C16.0606 7.98363 16.0569 7.96752 16.0487 7.95362C16.0405 7.93973 16.0282 7.92874 16.0135 7.92219C14.9969 7.33849 13.9817 6.75436 12.9679 6.16982C12.9505 6.15965 12.9361 6.15287 12.9145 6.14144L12.9166 6.14355Z" fill="#1F235A"/>
<path d="M9.1518 11.5239C9.1768 11.5108 9.19416 11.5023 9.21026 11.4926C10.2147 10.9148 11.2189 10.3373 12.2228 9.76012C12.2462 9.7497 12.2658 9.73222 12.2788 9.71011C12.2918 9.68801 12.2975 9.66239 12.2952 9.63686C12.293 8.30652 12.2923 6.97604 12.2931 5.64542C12.2931 5.55689 12.3041 5.47217 12.3664 5.40524C12.3979 5.37191 12.4342 5.34337 12.474 5.32053C13.6194 4.65974 14.765 3.99979 15.9109 3.34069C15.9986 3.29029 16.0876 3.242 16.1731 3.18863C16.2296 3.15098 16.2959 3.13089 16.3638 3.13089C16.4316 3.13089 16.4979 3.15098 16.5544 3.18863C17.3682 3.65965 18.1826 4.12898 18.9976 4.59662C19.4079 4.83298 19.8182 5.06906 20.2285 5.30486C20.3107 5.3523 20.387 5.40525 20.4141 5.5014C20.4269 5.54733 20.4335 5.59477 20.4336 5.64245C20.4336 6.76411 20.4336 7.88576 20.4336 9.00741C20.4336 9.29545 20.4336 9.58391 20.4336 9.87195C20.437 9.93587 20.4217 9.9994 20.3897 10.0548C20.3576 10.1102 20.3102 10.1552 20.2531 10.1841C19.0792 10.8588 17.9056 11.5338 16.7323 12.2093C16.7126 12.2181 16.6962 12.2329 16.6854 12.2515C16.6745 12.2701 16.6697 12.2916 16.6717 12.3131C16.6734 13.6437 16.6742 14.9742 16.6742 16.3045C16.6788 16.3772 16.6618 16.4497 16.6255 16.5129C16.5892 16.576 16.5352 16.6272 16.4701 16.6599C13.9879 18.0865 11.5064 19.5149 9.02558 20.9449C8.96984 20.9809 8.90491 21 8.83856 21C8.77222 21 8.70729 20.9809 8.65155 20.9449C6.94422 19.9602 5.23577 18.9763 3.52618 17.9933C2.7465 17.5438 1.96625 17.0949 1.18545 16.6468C1.12763 16.6174 1.07946 16.572 1.04664 16.5161C1.01383 16.4602 0.997764 16.396 1.00034 16.3312C1.00034 12.0547 1.00034 7.77845 1.00034 3.5025C0.997484 3.43937 1.01266 3.37672 1.04408 3.32189C1.07551 3.26706 1.1219 3.22231 1.17782 3.19286C2.41864 2.47926 3.65918 1.76496 4.89944 1.04995C4.95385 1.01625 5.01682 0.998925 5.08082 1.00005C5.14482 1.00118 5.20713 1.02071 5.26033 1.0563C6.27242 1.64028 7.28478 2.22356 8.29743 2.80613C8.51685 2.9332 8.73542 3.06028 8.95611 3.18439C9.01687 3.21522 9.06734 3.26309 9.10134 3.32214C9.13534 3.38119 9.15141 3.44887 9.14757 3.5169C9.14757 6.16092 9.14757 8.80508 9.14757 11.4494L9.1518 11.5239ZM8.52998 20.1511V20.0909C8.52998 18.9244 8.52998 17.7581 8.52998 16.5921C8.53143 16.5753 8.52754 16.5585 8.51887 16.5441C8.5102 16.5296 8.49719 16.5183 8.48169 16.5116C7.30328 15.8458 6.12529 15.1789 4.94773 14.511C4.90916 14.4889 4.87406 14.4612 4.84353 14.4289C4.77745 14.3594 4.76813 14.2713 4.76813 14.1794C4.76813 11.6977 4.76813 9.2161 4.76813 6.73445C4.76813 6.44642 4.76813 6.15796 4.76813 5.86949C4.76991 5.85407 4.76677 5.83847 4.75916 5.82493C4.75156 5.81139 4.73987 5.8006 4.72577 5.7941C3.7069 5.2087 2.68861 4.62274 1.67087 4.03622C1.65774 4.02859 1.64334 4.02309 1.62343 4.01335V4.06756C1.62343 8.08767 1.62343 12.1082 1.62343 16.1291C1.62207 16.1452 1.62575 16.1612 1.63395 16.175C1.64215 16.1888 1.65447 16.1998 1.66918 16.2062C2.03261 16.4138 2.39563 16.6223 2.75822 16.8319L8.47153 20.1219C8.48974 20.1307 8.50584 20.1384 8.52998 20.1511ZM16.055 12.6007C16.0317 12.613 16.0156 12.6202 16.0007 12.6291L14.6385 13.4068C12.8236 14.442 11.0098 15.4768 9.19713 16.5112C9.18181 16.5184 9.16912 16.5301 9.16084 16.5449C9.15256 16.5596 9.1491 16.5766 9.15096 16.5934C9.15096 17.7594 9.15096 18.9255 9.15096 20.0918V20.1515C9.17468 20.1388 9.19078 20.1312 9.20603 20.1227C11.4688 18.8198 13.7316 17.5172 15.9944 16.2151C16.0141 16.2064 16.0305 16.1917 16.0414 16.1732C16.0524 16.1547 16.0572 16.1332 16.0554 16.1118C16.0537 14.9656 16.0537 13.8193 16.0554 12.6731L16.055 12.6007ZM5.70891 14.2277C5.72839 14.2395 5.74237 14.2484 5.75635 14.2565C6.76589 14.828 7.77515 15.3997 8.78413 15.9716C8.79952 15.9831 8.81809 15.9897 8.83733 15.9904C8.85657 15.9911 8.87556 15.9858 8.89172 15.9754C11.1579 14.6792 13.4248 13.3842 15.6924 12.0903C15.7064 12.0822 15.7195 12.0733 15.7373 12.0623C15.7144 12.0479 15.6983 12.0373 15.6814 12.0271C14.6718 11.446 13.6626 10.8645 12.6536 10.2828C12.6386 10.2721 12.6206 10.2663 12.6021 10.2663C12.5837 10.2663 12.5657 10.2721 12.5506 10.2828C12.0988 10.5443 11.647 10.8047 11.1952 11.0639L5.7572 14.1951C5.74322 14.2056 5.72881 14.2162 5.70891 14.2277ZM8.53041 4.0125C8.50838 4.02351 8.49398 4.03029 8.48042 4.03791C7.46382 4.62246 6.4482 5.20687 5.43358 5.79113C5.41825 5.79823 5.40551 5.8099 5.39709 5.82454C5.38867 5.83918 5.38499 5.85607 5.38656 5.87288C5.38656 8.45929 5.38656 11.0454 5.38656 13.6313C5.38656 13.6486 5.38868 13.6656 5.38995 13.6906C5.41325 13.6774 5.42892 13.6694 5.44417 13.6605C6.4571 13.0776 7.46975 12.4951 8.48212 11.9128C8.49791 11.9054 8.51103 11.8932 8.51967 11.8781C8.52832 11.8629 8.53207 11.8454 8.53041 11.8281C8.53041 9.24391 8.53041 6.66004 8.53041 4.07646V4.0125ZM13.2292 5.60094C13.2618 5.62043 13.2881 5.63652 13.314 5.6522C14.3173 6.22997 15.3209 6.80802 16.3248 7.38635C16.3365 7.39471 16.3506 7.39919 16.365 7.39919C16.3795 7.39919 16.3935 7.39471 16.4053 7.38635C17.4219 6.80011 18.4385 6.21443 19.4551 5.62932C19.4699 5.62085 19.4835 5.61068 19.5017 5.5984C19.4818 5.58612 19.4699 5.57764 19.4593 5.57044C18.4427 4.98505 17.4261 4.39951 16.4095 3.81384C16.3976 3.80556 16.3835 3.80113 16.3691 3.80113C16.3546 3.80113 16.3405 3.80556 16.3286 3.81384C15.347 4.38031 14.365 4.94608 13.3826 5.51114L13.2292 5.60094ZM8.21653 3.472C8.20001 3.46141 8.18815 3.45252 8.17417 3.44532C7.15757 2.85908 6.13955 2.27269 5.12013 1.68617C5.10835 1.67788 5.09429 1.67342 5.07988 1.67342C5.06548 1.67342 5.05142 1.67788 5.03965 1.68617C4.10183 2.22695 3.16387 2.76716 2.22577 3.30681L1.94154 3.47116C1.96188 3.48344 1.97543 3.49234 1.98941 3.50038C3.00601 4.08634 4.02262 4.67216 5.03922 5.25784C5.05104 5.26623 5.06518 5.27073 5.07967 5.27073C5.09417 5.27073 5.10831 5.26623 5.12013 5.25784C6.13673 4.67131 7.15333 4.0855 8.16994 3.50038C8.18222 3.49276 8.19577 3.48344 8.21441 3.472H8.21653ZM16.6781 11.5231C16.7014 11.5112 16.7158 11.5049 16.7297 11.4968C17.7421 10.914 18.7546 10.3314 19.7673 9.74911C19.7842 9.74156 19.7984 9.72895 19.8078 9.71303C19.8173 9.6971 19.8216 9.67863 19.8202 9.66016C19.8202 8.50716 19.8202 7.3543 19.8202 6.20158C19.8202 6.18422 19.8202 6.16643 19.8168 6.14228C19.7956 6.1533 19.7812 6.1605 19.7677 6.16855C18.7553 6.7514 17.7427 7.33411 16.7297 7.91668C16.7129 7.92415 16.6989 7.93672 16.6896 7.95261C16.6803 7.96849 16.6763 7.9869 16.6781 8.00521C16.6798 9.15651 16.6798 10.3077 16.6781 11.4587V11.5231ZM12.9166 6.14355C12.9166 6.1677 12.9137 6.18083 12.9137 6.19396C12.9137 7.35345 12.9137 8.5128 12.9137 9.67202C12.9125 9.6867 12.9159 9.70138 12.9235 9.71399C12.9311 9.72661 12.9425 9.73652 12.956 9.74233L16.0058 11.4977C16.0207 11.5066 16.0368 11.5138 16.0592 11.5252V11.4676C16.0592 10.3118 16.0592 9.15581 16.0592 7.9997C16.0606 7.98363 16.0569 7.96752 16.0487 7.95362C16.0405 7.93973 16.0282 7.92874 16.0135 7.92219C14.9969 7.33849 13.9817 6.75436 12.9679 6.16982C12.9505 6.15965 12.9361 6.15287 12.9145 6.14144L12.9166 6.14355Z" stroke="#1F235A" stroke-width="0.4" mask="url(#path-1-outside-1_297_1707)"/>
</svg>
