<svg width="20" height="20" viewBox="0 0 20 20" fill="none" xmlns="http://www.w3.org/2000/svg">
<path d="M9.37634 0H10.6258L10.7951 0.0333191C11.1894 0.0888497 11.5865 0.11939 11.9724 0.197133C14.4575 0.696429 16.6601 2.12124 18.1344 4.18319C19.6087 6.24514 20.2446 8.7902 19.9133 11.3032C19.7529 12.6065 19.3308 13.8638 18.6724 14.9999C18.0139 16.1359 17.1327 17.1272 16.0817 17.9142C15.0458 18.7306 13.8546 19.3277 12.5806 19.669C11.3066 20.0103 9.97639 20.0887 8.6711 19.8994C6.8385 19.6729 5.11005 18.9229 3.69278 17.7392C1.82358 16.2333 0.566252 14.0986 0.155485 11.7336C0.0888482 11.3643 0.0499775 10.9867 0 10.623V9.37356C0.0277653 9.13478 0.052754 8.896 0.0888488 8.65999C0.374391 6.49433 1.37045 4.48463 2.92091 2.9459C4.37269 1.46842 6.25569 0.489499 8.29904 0.149933C8.65444 0.0888492 9.01539 0.0499775 9.37634 0ZM16.015 3.33183C13.6966 1.33551 11.0339 0.5914 8.03527 1.23555C5.68911 1.74088 3.87048 3.05418 2.48222 5.06161C2.59605 5.06161 2.65991 5.06161 2.721 5.06161L5.39479 4.95333C5.67245 4.95333 5.83349 5.06439 5.85014 5.29484C5.8668 5.52529 5.7141 5.67245 5.44755 5.69743L4.48965 5.78628L7.74929 15.4819C7.77122 15.4531 7.78898 15.4213 7.80204 15.3875C8.43509 13.4958 9.06537 11.6031 9.69286 9.70952C9.71355 9.64354 9.71355 9.57281 9.69286 9.50683C9.25972 8.30737 8.82381 7.11347 8.39067 5.91401C8.38153 5.87044 8.3573 5.8315 8.32224 5.80407C8.28719 5.77664 8.24357 5.76247 8.19909 5.76407C7.93809 5.76407 7.67988 5.72243 7.42166 5.69466C7.37063 5.69683 7.31976 5.68772 7.27266 5.66796C7.22556 5.64821 7.1834 5.6183 7.14919 5.58038C7.11498 5.54246 7.08956 5.49745 7.07475 5.44857C7.05993 5.3997 7.05609 5.34815 7.06349 5.29762C7.06445 5.24682 7.07629 5.19682 7.09822 5.15099C7.12014 5.10516 7.15163 5.06456 7.19058 5.03193C7.22952 4.9993 7.27501 4.9754 7.32397 4.96184C7.37293 4.94828 7.42423 4.94538 7.47441 4.95333C7.5466 4.95333 7.61602 4.95333 7.68821 4.95333C8.71913 5.04862 9.75544 5.07182 10.7896 5.02274C11.2449 4.9922 11.7003 4.96721 12.1556 4.945C12.4333 4.92834 12.5916 5.05328 12.6082 5.28651C12.6249 5.51974 12.4694 5.66134 12.2001 5.68633L11.2449 5.77518C12.3222 8.97374 13.3967 12.1612 14.4768 15.382C14.5101 15.3403 14.5212 15.332 14.524 15.3209C14.9794 13.8021 15.4403 12.2861 15.8845 10.7618C16.1616 9.91845 16.1489 9.00665 15.8484 8.17132C15.6457 7.64934 15.3459 7.16344 15.0932 6.65812C14.8802 6.27947 14.6946 5.88605 14.5379 5.48087C14.4552 5.2411 14.43 4.98529 14.4641 4.73399C14.4983 4.48268 14.5909 4.24289 14.7346 4.03389C14.8782 3.82488 15.0689 3.65249 15.2913 3.53056C15.5137 3.40863 15.7616 3.34057 16.015 3.33183ZM10.1843 10.8534H10.1399C9.24862 13.4412 8.36013 16.0261 7.46331 18.6277C9.27011 19.1562 11.1968 19.1077 12.9747 18.4889C12.0335 15.9234 11.1061 13.3856 10.1815 10.8507L10.1843 10.8534ZM1.79641 6.36103C1.26275 7.55742 0.99717 8.85605 1.01827 10.1659C1.03938 11.4757 1.34666 12.7651 1.91858 13.9437C2.75154 15.6624 4.93389 17.8309 6.06116 18.0447C4.6368 14.1603 3.22077 10.2732 1.79364 6.35825L1.79641 6.36103ZM17.9253 5.78351C18.034 6.92063 17.8948 8.06781 17.5171 9.14588C16.7045 11.5022 15.8873 13.8595 15.0654 16.2177C14.8914 16.7175 14.7184 17.2182 14.5462 17.7198C15.575 17.1388 16.4748 16.3545 17.1908 15.4146C17.9068 14.4747 18.4241 13.399 18.711 12.2528C19.2913 10.0744 19.0089 7.75609 17.9225 5.78073L17.9253 5.78351Z" fill="#1F235A"/>
</svg>
