<svg width="21" height="10" viewBox="0 0 21 10" fill="none" xmlns="http://www.w3.org/2000/svg">
<path d="M15.1818 10.0002H13.459C13.9713 7.36389 14.482 4.7384 14.9939 2.10669C15.0474 2.10171 15.0947 2.09383 15.1416 2.09383C16.2458 2.09383 17.3497 2.08512 18.4536 2.10088C18.7704 2.10577 19.0856 2.14754 19.3928 2.22533C20.3855 2.47672 20.9716 3.20766 20.9833 4.22981C20.9961 5.41292 20.5684 6.40728 19.6392 7.16933C19.0169 7.68041 18.2839 7.86003 17.504 7.88699C16.939 7.90649 16.3728 7.90151 15.8069 7.89571C15.651 7.89571 15.5796 7.92516 15.5498 8.0969C15.439 8.72911 15.3079 9.35592 15.1818 10.0002ZM15.8298 6.67609C16.44 6.65037 17.0137 6.65577 17.5795 6.59313C18.2205 6.52219 18.6971 6.18368 18.9427 5.56475C19.1019 5.18175 19.1828 4.77071 19.1804 4.35592C19.1704 3.82203 18.9522 3.50178 18.4237 3.43084C17.7841 3.34497 17.1352 3.34497 16.484 3.30349C16.2637 4.44387 16.0521 5.53157 15.8298 6.67609Z" fill="#1F235A"/>
<path d="M1.53364 2.10041C1.60292 2.0971 1.65809 2.09253 1.71202 2.09253C2.79515 2.09253 3.87829 2.08465 4.96142 2.09958C5.27817 2.10423 5.59338 2.14472 5.90102 2.2203C6.89662 2.46505 7.48403 3.14082 7.51473 4.15882C7.5587 5.59498 6.97544 6.72706 5.72223 7.47335C5.20534 7.78116 4.62209 7.86869 4.03219 7.88818C3.46719 7.90644 2.90094 7.90104 2.3351 7.8969C2.19033 7.8969 2.11939 7.92179 2.09035 8.08772C1.98042 8.71868 1.84933 9.34591 1.72322 9.98974H0C0.511629 7.35941 1.02284 4.72964 1.53364 2.10041ZM2.36912 6.67479C2.97436 6.64949 3.54683 6.6553 4.11142 6.5939C4.75027 6.52421 5.23148 6.1911 5.47706 5.57299C5.6427 5.17822 5.72408 4.75321 5.716 4.32517C5.70148 3.82737 5.48577 3.50338 4.99378 3.4366C4.34498 3.34824 3.68415 3.34284 3.02373 3.30136L2.36912 6.67479Z" fill="#1F235A"/>
<path d="M11.4007 7.90052C11.5011 7.37783 11.5977 6.8792 11.6911 6.38057C11.8296 5.65668 11.9769 4.93404 12.1013 4.20767C12.193 3.67336 11.9922 3.41367 11.4492 3.38837C10.8991 3.36265 10.347 3.38256 9.76415 3.38256C9.47349 4.87597 9.1809 6.37684 8.88636 7.88517H7.17725C7.68915 5.25305 8.1994 2.63337 8.71089 0H10.42C10.286 0.695677 10.1533 1.38389 10.0168 2.09284C10.4872 2.09284 10.9419 2.07832 11.3953 2.09699C11.828 2.11483 12.2664 2.12727 12.6892 2.21314C13.6503 2.40894 14.0544 3.01128 13.8851 3.9766C13.696 5.05517 13.4782 6.12918 13.2724 7.20485C13.2413 7.36705 13.1932 7.528 13.1787 7.69145C13.1641 7.85489 13.0986 7.90799 12.9318 7.90467C12.4299 7.89347 11.9279 7.90052 11.4007 7.90052Z" fill="#1F235A"/>
</svg>
